<svg xmlns="http://www.w3.org/2000/svg" width="150" height="150" fill="none"><path fill="#000" d="M80.15 36.305c.116-.01.642.04 1.26.444.706.414 1.378 1.566 1.29 2.573-.036.785-.076 1.536-.079 1.783-.006.676.068 1.278.064 1.425-.017.482-.051.082-.073.188-.021.109.026 1.485.019 1.553-.03.265-.078-.005-.082.021-.046.328-.062 2.172-.093 2.688.038-.025.075-1.046.113-.4.045.75-.12.792-.129.812l-.34 10.355c.088-.046.098-2.295.111-2.35.078-.299-.051 3.513-.098 3.98l.093-1.064c.08.61-.095 1.948-.08 2.827.005.276.059-.232.064-.247.028.32-.02.83-.06.446.025.779-.026.664-.05 1.26-.001.03.048-.224.049.249l-.002.06.021-.002v-.014c.004-.077.074.101.08-1.156.075.142.055.687.027 1.168h.038c.022-.486.028-1.034-.015-1.215.1.185.02-.148.04-.618.022-.514.047-.289.056-.567.026-.76-.06-.448.03-1.072-.23.604.007-1.075.078-1.564l-.048 2.398.038-.136-.026.63-.028-.1c.032 1.086-.054 1.348-.058 1.437l-.03.806c.174 0 .432.002.821.019.402.017.023.07.479.062.569-.144.558-.03.727-.029.485 0 .782-.035.829-.036.6-.006 1.48 0 2.14-.005-.007-.003-.318-.044.098-.031.152.005 1.5.194 2.68.132l-.92-.038c.362.017 2.888-.03 2.27-.081-.38-.031-1.304.09-1.405-.027.826.035 5.316-.015 5.826.009l.055.002c.03.002.001.004-.055.009-.066.012-.214.034-.164.038h.164c.343-.005.91.073 1.38.288.472.205.815.506.902.594.067.068-.097-.08-.292-.21-.193-.132-.417-.239-.382-.212.032.017.733.412 1.156 1.058.45.628.573 1.423.6 1.503-.04-.368-.255-1.033-.514-1.424-.24-.37-.4-.562-.12-.233.083.116.161.237.232.362.117.23.246.521.27.623.052.196.09.286.106.298.262.977.137 2.058-.634 2.942-.363.448-.716.89-1.024 1.295-.415.452.521-.748.061-.227-.953 1.08-.196.333-.22.371-.193.304-1.122 1.118-.996 1.222-.345.391-.256.247-.7.835l.208-.205c-.438.697-1.706 1.896-1.64 1.784.18-.302.8-.955.85-1.019.07-.09.137-.44 1.033-1.32.232-.468-1.295 1.494-.646.564-.468.604-2.496 3.007-2.741 3.391-.03.046.214-.08-.316.49-.25.27.304-.423.179-.307-.387.357-4.766 5.893-5.602 6.942-.054.068-.06.022-.114.089-.164.206-.722.985-1.03 1.342.66-.72-.52.758-.826 1.13-.466.563-.485.49-.693.728-.8.918-1.868 2.478-2.564 3.131.137.043-1.074 1.234-1.555 1.832-.377.468-.853 1.203-.303.605-.654.805-1.318 1.672-1.92 2.436-.1.126.007-.07-.162.145-.014.02-.006.072-.15.257-1.19 1.539-.663.75-.91 1.018-.138.15-.237.263-.308.348.704-.89 1.51-1.92 1.728-2.193-.254.18-1.56 1.972-1.984 2.463-.014.016-.002-.073-.016-.056h-.001c-.155.188-1.11 1.406-.867 1.193.066-.058.511-.614 1.036-1.276-.135.186.012.086-.011.119-.286.398-1.076 1.301-1.348 1.629-.061.074-.031.09-.04.102-.249.297-.226.113-.396.484-.532.471.808-1.035.658-.973-.115.047-2.882 3.548-2.807 3.605a.804.804 0 0 0-.155.136c-.2.198-.972 1.175-1.093 1.354-.02.03.061.076.035.112-.07.089-1.078 1.23-1.391 1.708l.606-.694c-1.159 1.447-.958 1.24-.55.776l.06-.069c.314-.36.714-.826.726-.829.033.003-1.912 2.451-1.6 1.927.043-.073.983-1.184.485-.66-.088.092-.659.831-.695.865-.24.228.99-1.399.785-1.245-.262.424-.686.9-1.029 1.353-.156.205-.16.284-.179.309-.288.379-.16.141-.257.265-.01.012-.035.049-.069.099a2.962 2.962 0 0 1-.747.716c-.297.192-.541.258-.42.146-1.487.63-2.398.071-2.747-.072-.368-.202-.351-.188-.081-.011.272.163.847.461 1.677.446.825.013 1.845-.502 2.358-1.193l.197-.246a7.237 7.237 0 0 1-.183.256c-.35.481-1.074 1.029-1.88 1.164a3.26 3.26 0 0 1-1.918-.244c-.344-.176-.182.005-.726-.379a3.166 3.166 0 0 1-.986-1.313c-.313-.711-.296-1.778.076-2.535.442-.957.929-1.997 1.118-2.404-.19.465-.082.352.073-.003.155-.356-.041-.087-.017-.16.028-.081.8-1.726.915-2.005-.537 1.261-.363 1 .116-.06l-.165.48c.26-.631.916-1.908 1.056-2.278.022-.057-.108.127-.097.095.124-.323.644-1.376.655-1.435.007-.047-.231.395-.171.218.014-.04.263-.455.444-.894.067-.164-.013-.084.003-.125.133-.347.107-.12.374-.743.195-.456.284-.822.585-1.44-.999 2.023-.192.308.169-.564.058-.14-.063-.052.339-.86-.662 1.808.288-.472.496-.932.012-.025.06-.015.162-.24.008-.019-.034-.005.058-.216.869-2.002.334-.713.533-1.079.085-.156.475-1.144.59-1.405.027-.06.046-.018.149-.25.181-.413.313-.796.432-1.068.014-.032.064-.012.277-.532.06-.147.115-.317.009-.118-.352.66-.848 1.987-1.239 2.736-.356.682.63-1.53.681-1.647-.011.037-.13.357.051-.036.172-.373.393-1.097.661-1.647.022-.044.293-.456.288-.433-.007.025-.296.712-.23.622.01-.015.202-.446.243-.496.05-.061.32-.166.367-.257.118-.233.006-.097.078-.25.154-.328.723-1.451.675-1.519l-.266.564c.465-1.057.237-.622.291-.775.06-.167.097-.097.261-.45.037-.08.69-1.572.653-1.555-.33.84-.263.503-.282.54-.069.143-.112.345-.199.538-.615 1.359-.064-.042-.224.272-.054.109-.118.343-.141.39-.074.15-.12.133-.161.236-.098.24.086-.006.083.012-.056.23-.476 1.04-.313.491-.163.3-.097.374-.24.606-.284.46.06-.266.139-.47.28-.73.406-.928.846-1.942.159-.366.312-.815.385-.985.048-.11.634-1.048.429-1.175.195-.38.613-.928.786-1.333.03-.068.046-.121.058-.162l-.365-.003c-.039.082-.066.135-.074.123l.378.01c-.22.04-.95.022-1.269.007.158-.034.547-.026.89-.017a.465.465 0 0 1 .04-.124c-.774-.007-1.637-.013-1.926.003l.664-.052c-.396-.053-.816.035-.823-.062-.08.156-.898.052-1.143.056-.097.001-.09.028-.21.029-.474.005-1.54-.016-1.797-.003-1.108.058 1.724.155 1.95.161-.447-.002-2.975.033-1.813.108.18.011.498-.058.599-.06.683-.019.147.044.2.05.092.01.54-.051.66-.044.039.002-.216.06.436.06-.32.055-2.151.01-2.393.023-.085.004.45.122-1.117.008l.055.033-2.618.014c.095-.025.584-.076-.032-.066-.355.006-.094.062-.126.064-.173.008-1.92.007-3.653.004-1.497.038-2.91-1.05-3.36-2.254-.517-1.219-.198-2.49.177-3.13l.14-.257c.178-.327.639-1.258.676-1.327.224-.417 1.056-1.87 1.212-2.166.096-.184-.04-.033.052-.196.085-.15.038.028.064-.015.22-.366 1.728-3.23 2.136-3.884-.238.406-1.288 2.504-1.238 2.478.01-.008.312-.489.355-.601.128-.151.345-.793.54-1.1.022-.034.003.139.325-.422.111-.194.348-.73.682-1.217.386-.76 2.615-4.636 2.7-4.94-.01.01-.32.523-.144.144.238-.515.109-.007.436-.578.05-.086.922-1.7.943-1.757.203-.522-.596.867-.592.844.008-.06.637-1.23.669-1.278.03-.042-.408.956.188-.205l-.247.376c.276-.549.363-.568.439-.696.234-.399.385-.886.853-1.474.124-.155 0 .147.017.128.152-.184.19-.505.44-.771.019-.02-.33.727.363-.533l-.166.247c.082-.188.773-1.47.871-1.64.288-.494.103-.026.374-.534-.253.282.58-1.257.595-1.133.037-.259.816-1.527 1.154-2.139.214-.385.612-1.192.684-1.313.087-.147.118-.072.278-.335.047-.077.448-.902.893-1.575.086-.131.337-.366.222-.1-.2.457-.728 1.239-.666 1.259.066.02.64-1.107.811-1.401.793-1.358.42-.529.458-.553.097-.067.509-.82.53-.85.09-.12-.166.434-.142.458.032.03.497-.659.419-.487-.113.246-.534.882-.555.926-.266.569.232-.137.389-.323.047-.056-.069.207-.036.157.495-.766-.027-.234.276-.758.27-.468-.008.171.005.155.02-.028.33-.586.398-.663.034-.038-.665 1.493-.583 1.458l.742-1.426c.083-.002-.333.646-.366.72-.064.149.184-.225.195-.197.006.019-.2.5.047.095.086-.139.205-.464.537-.959-.937 1.841-.212.61-.16.568.052-.04-.37.853.197-.201.148.022.027.044-.116.354-.173.38.33-.441-.434.876.1-.044.686-1.12.722-1.174.03-.046-.071.208-.015.128.665-.944.234-.281.466-.533.022-.025.568-.958.181-.23-.705 1.33-1.09 1.836-1.037 2.154.612-.933 1.149-2.177 1.31-2.475.247-.455.025.034.065-.016.016-.022.222-.402.232-.414.287-.205-.955 1.741-1.281 2.39.113-.16.228-.318.341-.477l-.379.694c.646-1.078.037-.031-.007.304-.009.075.347-.671-.039.191.35-.6.266-.394.539-.962.035.038-.597 1.305-.844 1.807.999-1.701.297-.804 1.203-2.251.098-.306-.282.41-.26.35.083-.227.403-.688.615-1.34.035-.106-.245.27.088-.33.037-.067.297-.424.297-.416.01.071-.213.443-.206.467.009.02.224-.392.236-.404.054.013-.176.362-.132.317.095-.097 1.034-1.562-.088.407.853-1.68.064-.24-.269.415-.085.166-.08.224-.198.462-.152.308-.36.652-.44.81-.086.17.503-.743-.272.62.451-.662 1.059-1.936 1.483-2.597.857-1.334-.416 1.029-.542 1.279-.033.066.126-.13.104-.086-.038.078-.787 1.398-.827 1.547-.04.148.266-.487.322-.513.038-.016-.808 1.616-.313.753.34-.595.86-1.752 1.058-1.886l-1.433 2.664.907-1.39c-.534.998-1.046 1.832-1.512 2.802 1.36-2.196-.307.781-.314.828.002.015.587-.824.683-.958-.397.81-1.698 3.219-.81 1.88-.163.236-.43.87-.431.887.095-.05.801-1.413.728-1.168-.086.284-.356.6-.565.994-1.073 2.024-.5 1.622-1.65 3.612l.096-.105-3.655 6.538c-.388.902-1.59 3.208-2.214 4.322a68.1 68.1 0 0 1-.83 1.385c-.1.146.361-.706.123-.338-.05.078-1.097 1.94-.978 1.833.12-.206.458-.877.528-.978.493-.712-2.742 5.024-2.87 5.33l.257-.359-.623 1.08.204-.462c-.239.414-.539.981-.765 1.363-.037.062.015-.123-.07.026-.084.15-.015.15-.13.371-.06.116-.235.418-.425.747h.024c.19-.34.495-.877.48-.809-.048.147-.273.536-.441.809.297 0 .594.004.891.008-1.717.044.014.089.495.07.107-.005.092-.115 1.814-.087 1.095.017.083.174 1.911.095-1.405-.11-.023-.101 1.08-.105.19 0 1.723.016 2.4.01.232 0 .586-.058.893-.06.212 0 .372.031.687.03.846-.005 1.685-.008 2.526-.007 1.492-.03 2.97 1.018 3.444 2.437-.217-.472-.34-.578-.32-.527.017.056.147.29.256.61.256.634.198 1.626.162 1.7-.105.41.08-.322-.023-.973-.096-.647-.339-1.154-.12-.457a3.52 3.52 0 0 1-.192 2.306l-.651 1.479c.308-.646-.275.918-.445 1.179.175-.07-1.73 3.59-1.946 4.18-.043.12.363-.628-.473 1.167-.09.195-.094.104-.136.208-.026.063-.078.487-.319.856-.088.134.252-.826-.629 1.224.48-.759-1.2 2.853-1.528 3.51l.226-.382c-.338.642-.352.78-.42.928-.277.596-.686 1.404-.933 1.965-.288.656-.218.69-.587 1.441l.291-.521-.719 1.575c.45-1.263-.122.262-.164.36-.066.157-.004-.084-.116.179-.011.027.043.005-.133.408-.367.844-.353.69-.51 1.043-.015.032.068-.066-.196.546-.178.412-.282.648-.335.765.134-.181.204-.283.1-.182.343-.476.01.114.263-.247.086-.123.087-.305.625-.884h.002c.157-.17.013.051.047.025.015-.012.506-.534.14-.064-.558.718-.119.015-.423.392-.037.046-.564.8-.52.766.008-.008.167-.227.2-.258.124-.122.099-.034.115-.052.053-.06.915-1.229 1.088-1.36.052-.039-1.405 1.839-1.47 1.906-.04.041-.1-.038-.146.003-.016.014-.287.373-.485.631a6.895 6.895 0 0 0-.148.375c.533-.679 1.18-1.497 1.423-1.732-.213.128 1.308-1.656 1.447-1.871.037-.057-.162.107-.122.048.258-.374 1.098-1.272 1.456-1.714.4-.493.315-.46.337-.487.177-.217.06-.024.168-.158.162-.201 1.28-1.583 1.33-1.657.014-.021-.207.172.027-.136.04-.053.064.016.76-.893.839-1.098-.66.7-.351.212.626-.635.538-.67.694-.853.055-.064.503-.5.92-1.027l-.878 1.155c.308-.362.872-1.093 1.129-1.389.125-.144.076.019.335-.306.054-.07.152-.438-.474.453-.097.033.255-.348.393-.545.02-.03.038-.2.274-.402.057-.049-.234.744.906-.989.037-.055-.133.103-.098.048.025-.039.364-.439.397-.488.034-.05-.155.125-.116.066.199-.308.61-.588.133-.01.17-.185.343-.369.513-.553-.253.14.223-.327.437-.6 1.374-1.747.386-.63.597-.952.338-.516.192-.032.718-.78.05-.068-.704.742.68-.91l-.59.75c.197-.077.713-.9.758-.96.518-.668.19-.198.933-1.212.066-.09.24-.265.38-.46.58-.81-.847 1.003-.92 1.025-.027 0 1.518-1.918 1.582-1.981.26-.254-.688.889-.468.703.08-.068 2.26-2.85 2.72-3.39.532-.623.876-.82.753-.926.268-.081.311-.308.378-.39.803-.977.806-.977 1.473-1.833.148-.189.312-.317.359-.389.026-.04-.071-.002.067-.2.193-.276 1.497-1.816 1.613-1.915.115-.098-.523.672-.375.562.458-.563.884-1.113 1.345-1.68.191-.234.12-.092.202-.194.035-.043.664-.873.631-.851-.087.063-2.096 2.597-1.608 1.897.094-.135.515-.54.387-.526l4.471-5.492h-.038c-.134.163-.295.353-.374.455 0-.034.18-.252.349-.455-.817-.005-1.623-.023-2.397-.019-.023 0 .178.042-.115.048-.511.01-.646-.049-.895-.058-.268-.01-1.215-.002-1.343-.023a1.04 1.04 0 0 1 .205-.063c.413-.024.56.051.597.052.142.003.28-.026.41-.024.212.003.329.03.609.032.192.002.007-.049.192-.047.069.001.806.119.875-.002-.004-.038-6.01-.086-6.613-.055l1.55.043c-1.049-.035-2.309.06-2.4-.081l-3.548-.011c-1.792.04-3.382-1.61-3.276-3.396l.21-5.726c.034-.694.112-.31.124-1.454l-.116.883c.04-.587.166-3.181.161-3.602 0-.055-.08-.133-.066-.782.014-.576.078-.666.1-.974.019-.258.013-.55.019-.626.005-.058.043-.08.054-.222.036-.446-.083-.087.054-.527l.003.324c.036-.539.116-1.273.117-.478 0 .136-.032.019-.036.12-.127 3.991.051.807.041-.594.066-.358.1-2.372.113-2.438.019-.092.051.253.104-.197.011-.094.07-2.786.11-1.816.008.2-.05 1.49-.058 1.802.139-.728.031-2.448.042-2.642.044-.778.05 1.498.122-.255.055-1.347-.064-.085-.08-.604-.008-.293.127-1.815.016-1.778.006-.523.055-.215.06-.28.007-.067.009-1.094.043-1.427.004-.04.056.089.062.047.006-.04.012-.302.018-.561a.686.686 0 0 0 .056-.04c-.012.35-.038 1.233-.037 1.287.002.045.094-.187.11.082-.013-.245.003-.893.024-1.527.002-.202-.084-.22-.106-.24-.022.001.055.13-.117-.004l.07.09a.14.14 0 0 0 .044.038c.027.01.073.07.08.115.001.03.002.05 0 .062-.007.121-.06-.07-.063-.044l-.002.096c-.017.005-.037.012-.056.015 0-.045.003-.09.004-.132-.002-.043-.01-.054-.011-.056-.006 0-.05.029-.063.02-.02-.026.003.001-.014 0-.006.024-.016-.012-.06.005.004-.043-.049-.018-.014-.036.038-.01.087.008.112-.011-.033-.025-.137-.031-.143-.038-.01-.016-.057-.025-.117-.069-.05-.043-.003-.13-.01-.14-.045-.053-.124.118-.128.139-.006.004-.01.006-.013.005-.032-.047.128-.235.147-.238.016-.04-.152-.08-.173-.091-.008-.02.236-.138.137-.149-.12-.029-.34.16-.345.178-.027.016.034-.094.131-.17.094-.082.233-.123.24-.132.005-.023-.292.048-.306.058-.02-.011.178-.16.285-.214.076-.05-.168-.018-.128-.031a.991.991 0 0 1 .37-.05c.185.005.361.078.377.083.051.011-.09-.087-.066-.087.042-.008.25.114.23.091-.006-.01-.2-.171-.454-.237-.247-.075-.514-.036-.52-.052-.022-.128 1.206.008.052-.18a1.867 1.867 0 0 0-.283.113c-.09.02.065-.09.129-.13.073-.022-.037-.112-.513.271.421-.39.774-.394.905-.424.14-.018.116-.028.026-.04-.18-.038-.623.078-.463-.027.061-.044.343-.131.615-.122.273.001.516.086.519.084-.076-.087-.408-.116-.518-.138-.03-.008.188-.018.388.017.2.03.38.096.286.035a1.72 1.72 0 0 0-.6-.16c-.278-.029-.55.029-.573.033-.417.076.077-.092-.016-.089-.064-.027-.546.178-.672.254.058-.047.195-.147.365-.225a2.29 2.29 0 0 1 .615-.18c.152-.035-.42.005-.317-.011.663-.243 1.959.394.703-.116-.08-.036-.604-.012-.62.003-.164.008-.007-.044.219-.069.226-.027.514.002.603.004.321-.03-1.125-.163.078-.057-.559-.127-1.05-.128-1.539.102.867-.42 1.649-.176 1.782-.179.116.02.045-.047-.286-.132a2.432 2.432 0 0 0-1.652.19c.422-.21.651-.237.786-.283.154-.042.21-.07.387-.07.112-.006.588.058.916.184.327.12.55.221.233-.05-.001-.002-.004-.003-.007-.005.965.307-.5-.296-.709-.303Zm-11.18 68.742c.331-.339-.697.925-.397.487.015-.021.379-.468.397-.487Zm-2.71-.842c.071-.034.054-.064.014-.094a1.742 1.742 0 0 1-.014.094Zm-.847-.534-.025.033c.008-.005.025-.006.044-.005a.125.125 0 0 0 .008-.048l-.027.02Zm0-.072c-.02.023-.041.048-.062.075.005-.01.128-.079.068-.077a.02.02 0 0 0-.007.002Zm.075-.191a.299.299 0 0 0-.043.016l-.004.005c.009.002.018.002.03.003a.915.915 0 0 0 .017-.024Zm-2.627-.722c-.196.437-.254.916-.144.497.033-.108.094-.296.177-.483.067-.158.132-.33.129-.364a6.329 6.329 0 0 0-.162.35Zm8.59-.712c-.025.074-.621.869-.686.881-.088.012.564-.737.686-.881Zm1.527-2.114c.862-.968-3.099 3.926-.888 1.021l-.275.439c.301-.35.652-.798.635-.83a.255.255 0 0 0 .056-.045c.028-.026.327-.423.472-.585Zm-9.323 1.01c-.19.37-.473 1.079-.296.765.04-.069.307-.737.296-.765Zm4.008-.221c-.015.017-.03.03-.04.041l-.006.012c.009-.003.001.009-.015.033l-.016.033c-.065.145-.118.266-.16.367l.181-.232c.047-.113.1-.247.163-.391-.052.066-.089.118-.107.137Zm.566-.385c-.195.18-.442.466-.559.636a1.66 1.66 0 0 0-.036.136l.01-.003c.494-.625-.12.031.585-.769Zm-4.287.325c.653-1.172.161-.596.081-.371a3.49 3.49 0 0 0-.08.371Zm4.109-.733c.027-.109-.233.427-.376.725l.15-.199.226-.526Zm1-2.118c-.263.545-.349.574-.378.635-.026.055-.444 1.015-.466 1.068-.19.48.037.085.004.18-.014.039-.155.322-.295.641.134-.176.28-.37.389-.517.082-.211.344-.842.36-.886.038-.1-.398.5.386-1.12Zm-4.248.912c-.136.292-.42.83-.338.793v-.002l.338-.79Zm5.144-.37c.24-.36-.42.392-.513.555-.045.08.407-.396.513-.555Zm-4.88-.252c-.099.191-.162.23-.194.325-.01.033.024.055-.014.165l.208-.49Zm7.568-3.742c.208-.237.47-.472.374-.33-.027.038-.455.512-.651.764-.583.744-.394.594-.426.636-.037.05-.44.49-.643.746-.509.641-.717.954-1.451 1.8.376-.526.096-.299.563-.845l-.09.16c.623-.815 1.403-1.708 2.142-2.63.188-.234-.078-.005.182-.3Zm-7.448 2.831c-.128.305-.249.617-.336.7.092-.19.322-.746.337-.7Zm1.47-3.105c-.051.204-.635 1.437-.794 1.702.072-.291.857-1.956.794-1.702Zm6.747-.106c.155-.17.622-.778.386-.524-.036.04-.419.527-.386.524Zm-5.685-1.91c-.02-.032-.4.79-.412.824-.163.495.26-.483.412-.825Zm.07-.389c-.065.119-.451.974-.307.751.144-.224.4-.92.307-.75Zm.528-.884c-.119.213-.624 1.33-.381.875.02-.039.408-.87.38-.875Zm.125-.548c-.09.144-.236.59-.09.351.074-.148.101-.368.09-.351Zm13.695-1.607c-.085.145-.663.876-.792.985.23-.313.538-.667.792-.985Zm-4.792.332c-.035-.01-.468.554-.392.494.029-.024.417-.482.392-.494Zm-8.099-.412c-.01.014-.246.486-.254.578.124-.178.364-.722.254-.578Zm13.472-.71c-.01.056-.51.679-.594.74.133-.192.414-.512.594-.74ZM69.8 87.391c.152-.396-.313.547-.336.698.083-.177.282-.558.336-.698Zm-.338.195a34.4 34.4 0 0 1-.195.429c-.2.336.342-.855.195-.429Zm2.055-3.647c-.536.79-.38.753-.413.828-.074.16-.283.517-.412.824l.415-1.067c-.134.27-1.255 2.63-1.255 2.696.002.087.324-.66.34-.69.019-.03.168-.104.204-.172.057-.112.953-2.11 1.12-2.42Zm7.629 2.327c.281-.257-.916 1.181-.402.48.024-.033.383-.462.402-.48Zm.563-.845c.29-.274-.728.921-.783 1.012-.11.039.71-.944.783-1.012Zm-7.64-3.082c.153-.222-.351.858-.373.892-.113.173.247-.71.372-.892Zm-.34-.31c.071-.123-.203.553-.306.748-.02-.03.26-.667.306-.749Zm.1-.338c-.026.156-.236.594-.372.893.026-.156.236-.595.372-.894Zm17.13-1.706c.037.008-1.013 1.407-1.06 1.454-.33.322.786-1.17 1.06-1.454Zm-4.572.152c-.168.22-.628.772-.684.89.207-.268.787-.922.684-.89Zm-.76.42c2.63-3.358 2.146-2.54-.136.217-.034-.02-.03-.005.136-.217ZM73.63 78.13c.106-.078-.348.786-.439 1.005-.015.038.023.085-.067.298-.034.08-.124.166-.137.193-.03.067-.659 1.517-.467.94.032-.098.983-2.166 1.11-2.436Zm16.555.5c-.424.636-1.051 1.403-.155.395-1.221 1.544-.76.864-.813.922-.063.069-.233.317-.278.36-1.023 1.016.771-1.05 1.246-1.676Zm-.309.329c-.091.162-.34.346-.315.31.1-.144.386-.437.315-.31Zm.486-.418c.27-.336.034.077-.131.24-.062.06.063-.155.131-.24ZM73.71 77.76c.012-.02.092-.062-.066.262-.181.371-.063-.02.066-.262Zm12.86-.33c-.38.382-.278.422-.033.115.086-.108.044-.127.032-.115Zm5.334-.783c-.153.28-.919 1.161-.6.712.049-.068.464-.533.6-.712Zm-4.838.172c-.118.158-.382.44-.402.468-.184.26.218-.118.402-.468Zm-.017-.518c-.066.146-.378.516-.585.77.017-.066.443-.582.585-.77Zm-20.486.407c-.553.005-.153.108.192.066.02-.004-.154-.066-.191-.066Zm-.394-.003c-.43-.093-1.296.095-.608.076.069-.002.628-.071.608-.076Zm-3.817.02c-.05-.004-.668.003-.65.028.304.032.855-.005.65-.027Zm9.187.003c.034-.007-.432-.163.672-.06.162.015-.415.056-.36.061.121.011.217.016.294.017-.515.013-1.049.02-1.101.01-.243-.045.48-.026.495-.028Zm1.222-.056c.764.022.203.051-.477.07.215-.016.22-.077.477-.07Zm-5.487.04c-.056-.004.812-.157-.449-.042.673.018-.037.034-.026.048.034.038 1.158 0 1.408.017.196-.069-.75-.006-.933-.022Zm3.707-.094c-.03-.028.877-.056.94.015-.194-.005-.917.003-.94-.015Zm21.896-1.268c1.424-1.72.109-.11-.224.325-.126.165.013.054-.1.204h-.001c-.897 1.189-.856.77.415-.69l-.09.16Zm-23.086 1.154c.015.002-.016.047-.033.049-.448.04-.355-.095.033-.05Zm4.584-.512-.03.068-.022-.001a.083.083 0 0 1-.01.024h.022l-.061.145c.025.058.089.005.094.023-.007.013.017.098.043.151l-.216.003-.012.029.25.004c.01.01.018.012.025 0h.078c.003-.014.006-.026.006-.036h-.074l-.012-.043.08.005a.033.033 0 0 0-.016-.014c-.027 0-.05 0-.066.002l-.017-.067a.55.55 0 0 1-.029-.141c0-.005-.02 0-.037-.006-.056.107-.041.055-.017-.028a.1.1 0 0 1 0-.027h.007l.007-.022-.012-.001c.005-.015.012-.02.018-.022l.019-.06c-.01.01-.018.018-.018.014Zm.332.413c-.004.013-.01.025-.012.036.026 0 .042.002.047.001.04-.003.072-.005.095-.008-.008-.01-.006-.017 0-.023a2.526 2.526 0 0 0-.13-.006Zm-.24-.003.002.003c-.01.066-.035.043-.058-.003h.057Zm-.31.005c-.14.005-.267.01-.351.02.058 0 .191.003.34.006l.01-.026Zm-1.101-.04c-.037-.04-.819.008-.653.027.106.011.672-.003.653-.028Zm1.623-.021c.014.008.02.018.025.026l.09.004a.4.4 0 0 1-.064-.031h-.051Zm-.09-.21c-.017.033-.05.014-.058.082 0 .015.002.029.004.04l.054-.121Zm-4.586.062c-.045.004.255.083.44.052.142-.024-.265-.064-.44-.052Zm1.396.042c.322-.027-.418-.108-.757-.045-.172.033.7.05.757.045Zm16.16-.051c.178-.166.33-.49.169-.336-.143.17-.188.351-.17.336ZM72.5 76.112c-.597-.096-.315.026.214.057.16-.043-.116-.041-.214-.057Zm1.796-.018c-.016.001-.029-.009-.03.066l.03-.066Zm-3.708-.054c-.167-.017-1.879.002-1.617.053.094.018 1.077-.027 1.123-.024.067.006-.245.061.279.05-.028-.02.272-.073.215-.079Zm1.417.01c-.594-.072-.727.063-.28.063.174 0 .365-.052.28-.062Zm2.393.033.432.004a.026.026 0 0 0 .006-.003.02.02 0 0 0 0-.006c-.025-.013-.247-.006-.407-.016h-.02l-.01.021Zm-.043-.023-.001.004c-.002.006 0 .013-.002.019h-.018l.01-.023h.01Zm-.043-.001a7.716 7.716 0 0 0-1.057.016l1.046.007.01-.023Zm14.128-1.467c.1-.025-.569.734-.783 1.013-.1.025.57-.734.783-1.013Zm5.31-.417c-.023.076-.443.586-.586.77.066-.147.379-.517.586-.77Zm.422-.307c.07-.077.367-.332.103.02-.06-.065-.51.445-.656.755-.188.12.242-.434.553-.775ZM75.756 72.67c-.015.01.498.143.964.44.477.285.86.723.94.791a3.806 3.806 0 0 0-.97-.848c-.45-.275-.922-.388-.934-.383Zm-14.138.633c-.006 0-.017.015-.036.04a.367.367 0 0 1-.037.114l.06-.11a.366.366 0 0 0 .013-.044Zm28.287-.637c.332-.34-.697.924-.396.486.016-.023.376-.464.396-.486Zm-25.188-.036c.207-.015-.626-.055-.624-.012.005.014.592.014.624.012ZM91.6 71.06c-.019-.058-.694.828-.387.512.077-.079.39-.49.387-.512Zm-32.706-1.454c-.124.256-.92 1.642-.908 1.672.018.027.88-1.547.908-1.672Zm38.449.209c-.05.052-1.22 1.505-.779 1.033.135-.145 1.19-1.47.779-1.033Zm-5.154.021c-.087.172-.565.74-.785 1.014.105-.207.526-.692.785-1.014Zm2.7-2.994c-.762.959-1.582 1.938-2.338 2.888-.15.186-.659.808-.562.761.925-1.134 2.042-2.565 2.95-3.65h-.05Zm3.91 1.262a3.737 3.737 0 0 1-.267.377c-.151.186-.34.427-.353.474-.015.055.227-.246.376-.457.134-.177.223-.337.245-.394Zm-38.123-1.636c-.018.004-.3.517-.31.54-.25.56.345-.53.31-.54Zm17.85-2.637c.193 1.674 1.744 2.972 3.373 2.932.475-.007.951-.018 1.435-.023-.353.094 1.775-.072.53.036.573-.023 5.528-.042 5.951-.021h.002c.13.007.065.175-.468.11-.07-.008.257-.053.2-.063a51.408 51.408 0 0 0-1.246-.026c-.058.005.01.059-.05.065-.067.006-.78-.04-1.152-.041-.704-.001-.78.044-.838.044-.169 0-.451-.032-.792-.032-1.022 0-2.364.014-3.572.005-1.996.016-3.306-1.74-3.374-2.986Zm16.465 3.01h-.02c0 .012.002.015.02 0Zm-.063-.05.01.001c.164-.013.142-.023.015-.033l-.025.032Zm-.091 0h.039l.03-.038-.037-.003-.032.04Zm.009-.042c-.57-.031-2.072-.039-1.472.016.052.004 1.073.022 1.439.025a.439.439 0 0 1 .033-.04Zm.24-.013c-.058.01-.056.012-.014.018l.014-.018Zm-2.578-.09c-.07-.005-.946-.007-.966.024.268.011 1.41.008.966-.024Zm6.438-1.108c.209-.29-1.967-3.01-.232-.51.036.07.26.598.302 1.05.048.447.017.78.067.322.017-.64-.11-.721-.137-.862Zm-3.379.564a.252.252 0 0 0-.069.091l.07-.091Zm-.137.046c-.006.014-.012.028-.016.042a.538.538 0 0 1 .04-.07l-.024.028Zm2.636-2.468c.233.18.443.391.595.635.464.665.597 1.297.55 1.26a4.006 4.006 0 0 0-.375-.92 1.605 1.605 0 0 0-.176-.3c-.02-.023-.039-.043-.055-.063a3.866 3.866 0 0 0-.539-.612Zm-36.872 1.81c.057-.065.07-.067.056-.032-.021.025-.04.038-.056.032Zm35.262-2.57c.575.04 1.137.324 1.61.758-.62-.479-1.407-.733-1.733-.76l.123.002Zm-14.225.353c.012.008.03.038.036.084l.008-.17a.428.428 0 0 0-.035-.065l-.008.151Zm-.05-.004a.22.22 0 0 1 .028.086l.003-.109a.1.1 0 0 1-.031.023Zm-.256.077c0-.01-.005-.071.053.002l.006-.13c-.015.003-.037-.006-.054-.014l-.005.142Zm.196-.171c.028 0 .073.014.092.035a.804.804 0 0 0-.004-.128.436.436 0 0 0-.025-.027c-.015.008-.028.027-.034-.03a.382.382 0 0 0-.026-.02l-.003.17Zm-.191.005a.13.13 0 0 1 .055.014l.005-.1c-.012-.005-.022-.008-.023-.012-.001-.01.01-.01.025-.008L82 62.95a.247.247 0 0 0-.06-.008l-.01.24Zm12.84-.148c-.175.003-.005.048-.197.048-.635.001-1.198-.03-1.794-.03-.051 0 .363.032-.094.031-.071 0-.498-.047-1.046-.04-1.212.146-2.102.003-3.64.056.06.013 1.205.05 1.275.051 1.286.024 3.59.027 4.936.028.345 0 .178-.031.326-.032.118-.001-.022.056.372.035.187-.01-.388-.072-.26-.083.083-.008.5.016.634-.003.038-.006-.388-.063-.511-.06Zm-8.213.086c-.274-.018-.68.033-.267.047.363.012.29-.045.267-.047Zm9.317-.155c-.821-.004-2.408-.018-1.945.03.068.007 1.268.026 1.945.012.641-.006 1.08.163.987.102-.098-.026-.482-.144-.987-.144Zm-3.696.042c.038-.035-.735-.016-.804.018.157 0 .79-.008.804-.018Zm1.558-.077c-.192.002-.503.072-.136.079.073-.02.552-.084.136-.08Zm-.71-.006c-.45-.002-1.57-.005-.8.056.15.012.547.004.756.008-.669-.059.074-.002.044-.064Zm2.554-.03c-.183-.023-.625.027-.355.062.237.006.396-.056.355-.061Zm-7.741-.024c2.247-.037 2.538.128.482.063-.04-.002-.619-.046-.482-.063Zm-5.799-3.7c-.027.246-.006 1.032.031 1.205-.01.032-.022.118-.04.274l-.046.983-.046 1.296.058-.009c-.002-.074-.032.025-.01-.464.002-.035.034-.053.04-.163.011-.255.076-1.609.06-1.883.006-.002.012-.02.019-.057.056-.334-.045-1.371-.066-1.181ZM63.408 61.3c.267-.426.18-.029-.06.31-.029.038-.3.266.06-.31Zm.903-1.547c.003.068-.26.512-.375.702-.023-.023.274-.51.375-.702Zm17.956-.576c.028.085-.042 1.196-.067 1.245.013-.435.037-.847.067-1.245Zm-.196 1.198c.009-.028.013-.013.016.034-.006.002-.01-.01-.016-.034Zm.017-1.98c-.004.03-.044.74-.002.644.062-.141.03-.846.002-.644Zm.152-1.348c.01-.063.208-.26.114.406-.017.12-.047-.353-.096.462.024-.608-.072-.483-.018-.868Zm-3.487-.321c.056-.14-.003.924-.008.965-.042.325-.038-.672.008-.965Zm-12.758-.017c-.01.022-.22.399-.23.411-.227.319.412-.824.23-.411Zm13.044-1.067c-.025-.608-.097 1.295-.089 1.392.03-.06.091-1.326.09-1.392Zm3.413-.22c.028-.002.005.746 0 .807-.043.397-.022-.533 0-.807Zm-3.278-3.088c-.004.05-.056 1.088-.03 1.111.016-.15.077-1.67.03-1.111Zm.312-.092c-.003.244-.055.912-.023.953.003-.243.055-.91.023-.953Zm-.376.856c.115-.637.001-2.572-.01-1.308 0 .025.06-.217.038.272-.002.04-.065.115-.064.73 0 .124.033.316.036.306Zm3.548-.768c.032.749-.054.259-.06.281-.009.054.02.583-.026.463v.002c-.058-.688.084-.805.086-.746Zm-14.2-.021c.022.016-.345.686-.368.72-.149.215.195-.48.367-.72Zm11.365-.791a.707.707 0 0 0-.051.146c-.086.747.06.277.051-.146Zm-10.49-.884c.227-.457.466-1.316.465-.89l-1.041 1.993c.074-.244.41-.772.575-1.103Zm.34.028c-.106.087-.364.64-.546.944.128-.114.37-.628.547-.944Zm-.12.052c-.016.02-.388.706-.367.72.167-.296.507-.88.367-.72Zm12.82.268c.017-.091.045.196.035.347-.018.27-.088-.05-.035-.347Zm-12.425-.645c-.084.07-.414.694-.547.945.106-.086.367-.642.547-.945Zm-.894.539c.058-.23.568-1.065.383-.688-.05.105-.288.51-.383.688Zm10.373-3.545c-.015.144-.088 3.092-.086 3.506.039-.404.139-3.324.13-3.457-.002-.038-.041-.066-.044-.049Zm-8.933 1.766c-.14.17-.531.985-.444.86.025-.038.517-.948.444-.86Zm8.582-.729c.035.267-.004 1.018-.01 1.45-.059.045.01-1.14.01-1.45Zm3.677.463c.062-.47-.004 1.158-.025.627-.001-.03.022-.599.025-.627Zm-2.884-.036c-.062.253.058.548.075.136.005-.122-.067-.162-.075-.136Zm3.008-2.63c-.003.021-.004.037-.007.048.032.188-.074 2.194-.089 2.312-.075.598.047-2.148.059-2.227a.713.713 0 0 1 .016-.084c-.014-.102.001-.62.047-.679-.009.156-.02.58-.026.63Zm-.4 1.486c.042.185.044.305.015.822.012-.766-.055-.058-.015-.822Zm-11.486.688c.188-.223.787-1.4.597-1.133-.027.038-.506.972-.597 1.133Zm8.832-1.2c-.001-.023-.066.087-.07.112-.065.536.097.287.07-.112Zm-3.637-1.218c.244-.537 1.327-2.023.35-.326v-.001c-.254.438-.138.151-.148.167-.572.925-.36.715-.432.868-.156.33-.22.229-.478.788.433-.92.012-.098-.035-.09-.187.027.715-1.152.931-1.611.03-.063-.263.369-.188.205Zm-.21.755c.12-.099-.294.628-.36.728-.027.04.204-.599.36-.728Zm3.372.594c-.076-.321.031-1.78.04-.779.001.096-.05.5-.04.779Zm.762-1.214c-.016.248-.059.986-.029 1.111.003-.271.06-1.005.03-1.111Zm-.57-2.696c.06.427-.008.766-.023 1.335-.004.154.028.115.027.131-.007.266-.036.066-.042.23-.004.103-.033 2.258-.08 1.946-.032-.222.101-3.168.117-3.642Zm.255-.297-.041 1.595c.144-.515.07.568-.046.933l.063.457c-.167.244.08.35-.067.837.168.66.06-1.805.23-2.098-.107 2.67.22-1.758-.083.097.138-1.532-.014-.504-.037-.742-.023-.256.041-1.122-.02-1.08v.002Zm.195 3.551c-.059.387.072.484.047.035-.001-.017-.044-.049-.047-.035Zm-7.194-1.07c.077-.173-.313.414-.324.515-.006.06.275-.404.324-.515Zm9.783-.412c-.012.192-.036.77-.063.764.01-.287.023-.691.063-.764Zm-5.302.063c-.008.018-.221.399-.23.411-.227.319.412-.823.23-.41Zm-.591-.6c.22-.342-.223.487-.367.72-.026.001.346-.687.367-.72Zm6.238-1.153c.012-.026.066.796.033 1.16-.062.69-.042-1.117-.033-1.16Zm-2.932.738c.022-.154.057-1.794-.002-1.135-.004.052-.026 1.207.002 1.135Zm.32-1.87c-.005.23-.04.812-.038.944.007.463.09-.716.037-.943Zm-4.902.883c-.034.239.156-.167.24-.285.076-.107.161-.158.277-.424l-.517.71Zm4.42-1.403c-.011.104-.05 1.04-.014 1.124.066-.443.04-1.358.014-1.124Zm.273-2.821a.475.475 0 0 1 .03.268c-.043.597-.088 1.247-.114 1.705-.012.204.01.403 0 .577-.014.278-.047.03-.05.048v.001c-.034.364.043.837.079.059l.014.822c.087-1.018-.044-.947-.029-1.24.022-.408.126-.373.156-.29-.036-.231-.026-.972-.011-1.68a.435.435 0 0 0-.075-.27Zm-2.892 1.717c-.163.353-.6 1.084-.756 1.401-.018.037.205-.096-.127.326-.223.284.663-1.447.883-1.727Zm.225.743c.19-.292-.166.388-.29.582-.03.005.26-.536.29-.582Zm1.376-1.319c.016.05-.705 1.31-.83 1.536.04-.146.808-1.583.83-1.536Zm.465-1.11c.027-.039.08.12-.09.392-.53.85-.242.178-1.155 2.065.356-.808-.026-.07.03-.235.044-.133.31-.575.123-.336.118-.16.38-.617.619-1.041l.473-.846Zm1.068.902c-.012 1.316-.085.818-.123 1.051-.081.496.14.328.15.266.043-.255-.012-1.136-.027-1.317Zm2.38-.34c.032.34.007 1.115-.017 1.609-.058.006.02-1.29.017-1.608Zm-2.283 1.134c-.101.372.08.714.06.136 0-.027-.054-.15-.06-.136Zm-.79-.217c.018-.334.03-1.027.073-.875-.04.59-.02 1.895-.101 1.354-.04-.27.025-.445.027-.48Zm.002-1.258a49.43 49.43 0 0 1-.06 1.582c-.015-.115.003-1.004.02-1.583-.003-.025 0 .002.003.003.03.021.029-.046.037-.002Zm-.157 1.19c.02-.093.06.081.05.357-.028.098-.095-.143-.05-.358Zm.439-.811c.045-.324.02.587 0 .807-.046.489-.006-.764 0-.807Zm-.418-.383c.004-.008.05.071.054.023 0-.002-.001-.041.002-.021-.014.537-.043 1.255-.078 1.024-.018-.117-.002-.612.022-1.026Zm-.924.157c.02-.015-.323.64-.37.712-.25.374.261-.63.37-.712Zm.057.114c.032-.006-.26.539-.289.583-.189.291.166-.389.29-.583Zm1.05-.285c.022-.012.03.005.023.024.036.044.028-.01.069.04.026-.023.024.081.009.092a.087.087 0 0 0 .04.001l-.002.07c-.053.032-.108.058-.12.032-.013-.014.039-.056.037-.06-.02-.007-.064-.002-.066-.011-.01-.033-.004-.052-.007-.086.008.067-.043.056 0-.018h.004c.015-.036.032-.057.006-.088l.005-.002c0 .002.002.004.001.006Zm.198.142c.019-.006.032-.008.034.005.018-.006-.003.014-.037.04l.002-.045Zm.086-.398c.078.069.086.186.126.29l.001.005v-.006c.012-.162-.047-.282-.127-.289Zm2.639-.619c-.111-.393-.279-.728-.055-.315.05.034.235.89.205.919-.023.23-.035-.209-.15-.604Zm-4.464-1.31c.377-.214.127-.073-.17.185-.302.257-.55.67-.57.701-.067.093-.002-.081.153-.306a2.29 2.29 0 0 1 .587-.58Zm.223.119Zm1.933-.717c.225.047.486.15.543.19-.143-.046-.34-.111-.601-.202l.058.012Zm-.166-.114c-.013 0-.021.002-.023.005.002-.005.01-.006.023-.005Z"/><path fill="#000" d="M47.615 65.67c.728.306.065-.03.215.016.12.038.515.275.304.104.284.216 1.637.931 1.693.972l-.002-.001c.034.024-.114.083-.357-.069-.76-.473-.155-.227-1.853-1.022Zm-.172-.04c.132.031 1.431.713 1.378.733-.047.017-1.175-.624-1.378-.733Zm1.433.292c-.26-.17.35.142.523.253.004.03-.48-.226-.523-.253Zm-.009-.134c-.335-.225.571.224.64.325a8.436 8.436 0 0 1-.64-.325Zm23.871-44.845c.06.056-1.06.109-1.097.124-.04.012.179.137.215.141.123-.027 2.845-.233 3.42-.088-.221-.117 2.056.135 2.302.175.066.002-.172-.085-.1-.08.447.021 1.612.33 2.148.47.603.151.537.094.571.101.264.074.045.047.206.09.25.051 1.896.605 1.975.644.024.007-.223-.141.136-.016.06.026.008.048 1.049.468 1.247.525-.83-.45-.293-.28.766.43.772.346.985.451.028.015.12.071.253.153.2.124.506.308.843.47l-.876-.4a16.366 16.366 0 0 0-.333-.152l.326.164c.389.195.895.436 1.134.567.149.082-.005.078.328.24.07.035.42.034-.483-.334-.043-.083.354.153.553.234.03.012.186-.014.406.16.053.04-.708-.035 1.034.608.057.021-.113-.1-.058-.08.04.014.453.233.503.252.05.02-.138-.114-.077-.092.308.11.625.43.029.123l.579.346c-.166-.205.33.129.61.263 1.791.861.63.207.953.325.519.19.06.173.816.484.07.028-.78-.48.928.414l-.769-.37c.1.169.924.45.985.477.683.322.209.13 1.24.578.092.04.276.16.474.243.821.346-1.036-.548-1.069-.612-.015-.03 1.972.956 2.036 1 .27.182-.909-.428-.708-.268.074.059 2.927 1.424 3.486 1.724.645.347.877.622.954.479.114.233.325.217.409.26 1.008.514 1.01.517 1.886.933.194.092.335.215.407.241.041.015-.009-.067.191.014.279.113 1.874.96 1.982 1.045.107.085-.689-.326-.566-.213.58.291 1.143.557 1.726.85.241.122.103.09.207.142.044.023.897.411.867.383-.074-.068-2.672-1.33-1.964-1.044.137.055.568.352.535.233l6.922 3.49c-1.361-.596-2.832-1.39-4.229-2.074-.192-.093-.832-.42-.776-.34 1.18.596 2.665 1.303 3.79 1.892.036.019-.116-.01.018.064.25.137 1.108.486 1.241.57.022.016-.474-.167-.347-.066.329.263.511.132.828.29.244.123 1.85 1.024 2.288 1.172.464.158-1.199-.633-1.053-.62 1.141.504 2.247 1.113 3.306 1.628.018.01-.124-.107.114.004.414.193.495.3.69.406.211.116.976.484 1.069.553a.87.87 0 0 1-.193-.024c-.341-.142-.426-.268-.456-.284-.112-.059-.236-.088-.339-.141-.169-.087-.251-.157-.474-.27-.155-.078-.028.042-.176-.034-.054-.028-.593-.425-.702-.346-.034.026 4.782 2.46 5.279 2.671l-1.226-.653c.827.447 1.88.86 1.89 1.023l2.029 1.011c3.581 1.63 4.628 6.795 1.982 9.707-.6.607-.304.285-1.353 1.088a1.775 1.775 0 0 1-.034.024l.037-.02c.3-.166.588-.355.864-.572a6.943 6.943 0 0 1-.829.625c-.754.477-1.853 1.185-2.074 1.348-.039.029-.051.135-.53.46-.426.29-.529.285-.766.427-.198.12-.405.277-.465.312-.045.026-.084.006-.193.071-.344.204-.016.114-.414.23l.233-.171c-.412.251-.992.57-.415.154.1-.072.033.017.109-.033 2.974-1.978.556-.463-.456.275-.298.132-1.773 1.149-1.837 1.179-.078.033.154-.173-.203.018-.076.04-2.068 1.396-1.384.857.141-.111 1.112-.735 1.344-.89-.61.265-1.799 1.25-1.946 1.342-.59.37 1.061-.822-.255.033-1.011.658-.024.096-.393.38-.207.16-1.39.84-1.302.913-.384.269-.188.07-.238.098-.053.03-.8.564-1.062.71-.031.017.032-.093-.002-.076-.066.034-.8.533-.827.557-.016.015.187-.06.121-.002-.077.068-.796.53-.828.569-.039.051.829-.54.714-.397-.414.257-1.055.726-1.298.94.059-.054.45-.315.59-.402-.022.112-.863.668-.611.424-.164.15-.029.083-.115.179-.024.026-.281.199-.324.244.011-.002.279-.145.237-.097-.081.09-.877.607-.946.644-.194.101.435-.346.471-.411.005-.01-.581.297-.593.297-.067-.032.569-.397.467-.399l-.473.269c.55-.435 1.644-1.122 1.885-1.362-.852.588-1.756 1.184-1.838 1.059-.034-.053.313-.327.295-.334-.086-.011-.566.38-.59.392-.017.008-.027.01-.029.007-.018-.028.706-.536.734-.573.047-.063-.341.06-.356.04.009-.013.518-.383.317-.302-.203.083-.663.386-.681.393-.101.035.688-.515.704-.544.007-.014-.448.23-.47.227-.018-.004.292-.246.397-.368.079-.09-.215.074-.168.037.033-.026.791-.527.827-.557.05-.044-.147.04-.128.016.029-.035.282-.186.242-.177-.03.007-1.048.521-1.067.49-.023-.057 1.06-.607-.008-.188-.008.003-.226.17-.234.172-.165.057.528-.484-.359.117 1.62-1.164.157-.213.347-.461.074-.097.708-.537.708-.543-.091 0-.274.168-.358.194-.046.014.501-.412.353-.355-.077.03-.686.44-.713.455-.259.132.017-.093-.048-.078-.044.01-.41.253-.425.26-.019.005.448-.38.54-.468.07-.066-.241.109-.191.067.309-.258 1.082-.635.31-.314-.047.02-.303.195-.312.199-.184.068.288-.25.354-.337.112-.15-.553.333-.008-.081-.45.248-.688.407-1.181.748 1.367-.944 1.765-1.403.23-.382.491-.322.386-.362.531-.46.09-.061.849-.454.411-.41-.056.006-.467.317-.361.184 1.04-.672.004-.043-.002-.047-.054-.11 2.527-1.7 2.954-1.999.494-.347.889-.723.999-.796.36-.238.088 0 .178-.038.092-.039 1.065-.795 1.119-.825.209-.114.04.067.062.056.266-.134 1.616-1.081 2.009-1.325-.033-.023-.808.486-.359.117.524-.43.648-.315.666-.319l6.577-4.359c.262-.174.491-.38.681-.615-.05-.016-.362.355-.705.58-.319.218-.584.402-.601.408-.087.03.177-.163.581-.44.571-.34 1.082-1.222 1.132-1.4a2.73 2.73 0 0 1-.319.518c.112-.318.492-.997.43-1.523-.014-.16-.055.148-.061.14-.026-.179-.018-.465.046-.253-.081-.436-.025-.378-.102-.71-.006-.016-.001.13-.096-.116-.029-.124-.338-.696-.433-.731-.027-.018.017.324.148.291.242.643.156.172.257.425-.001.044-.042-.04.101.63-.121-.12-.248-.875-.353-.977-.082-.108.008.081.094.334.091.251.153.574.213.674-.118-.085.003.078-.006.333-.017.274-.043.152-.058.297-.069.391.037.254-.125.546.314-.237-.18.56-.408.687.241-.327.399-.71.462-1.117l-.046.062c.023-.104.04-.21.05-.317l.027.054c-.028-.56-.022-.696-.02-.745a2.515 2.515 0 0 0-.916-1.552c-.072-.044-.038.005-.487-.278l-.187-.102c-.314-.175.013-.072-.355-.245-.521-.096-.462-.196-.598-.263-.388-.192-.642-.277-.679-.295-.484-.233-1.188-.587-1.719-.844-.007-.002.243.17-.092-.01-.119-.063-1.117-.768-2.091-1.18l.721.4c-.282-.16-2.329-1.119-1.857-.829.29.178 1.086.435 1.116.581-.659-.365-4.41-2.16-4.688-2.327-.038-.023.225.065.172.033-.041-.024-.899-.439-1.006-.508-.062-.04.32.123.3.098-.022-.022-1.082-.564-1.164-.55.27.111.999.49.595.335-.053-.02-.296-.175-.359-.2-.584-.222 1.092.59 1.352.719-1.077-.465-2.67-1.331-3.904-1.897-.475-.278.755.306.213.001-1.123-.631-.332-.102-.37-.115-.304-.106-1.185-.78-1.258-.635-.407-.228-.263-.18-.863-.452l.218.145c-.698-.238-1.979-1.139-1.867-1.104.301.094.99.52 1.053.549.092.043.419.019 1.352.645.459.103-1.551-.85-.61-.47-.619-.292-3.104-1.606-3.49-1.742-.046-.015.107.184-.491-.174-.283-.17.43.18.306.09-.382-.275-6.065-3.026-7.144-3.554-.07-.035-.029-.054-.097-.087-.211-.103-1.002-.436-1.372-.637.752.443-.768-.302-1.15-.499-.582-.299-.519-.335-.766-.471-.954-.527-2.529-1.145-3.227-1.64-.018.14-1.283-.706-1.897-1.01-.482-.24-1.22-.506-.593-.137-.83-.416-1.716-.827-2.5-1.205l-.026-.012c-.068-.039.069-.009-.12-.097-.019-.008-.06.013-.238-.066-1.476-.62-.737-.372-1.003-.514a5.238 5.238 0 0 0-.35-.16 20.636 20.636 0 0 1 2.15.931c-.047-.046-.185-.125-.376-.223-.568-.303-1.67-.695-2.052-.843-.017-.007.06-.03.042-.036v-.001c-.187-.084-1.421-.445-1.184-.312.063.035.632.197 1.29.436-.182-.056-.068.042-.1.033-.386-.12-1.314-.463-1.655-.554-.077-.022-.08.012-.093.01-.307-.087-.158-.15-.5-.129-.536-.254 1.058.243.962.15-.056-.167-3.72-.79-3.728-.614a.53.53 0 0 0-.165-.05c-.228-.056-1.261-.083-1.44-.058-.029.003-.017.095-.054.096-.091-.006-1.352-.038-1.814.074.253-.012.506-.018.758-.02-1.521.114-1.28.149-.773.116.025-.003.05-.002.074-.003.393-.018.897-.024.905-.016.014-.012-2.524.294-2.047.162.066-.03 1.256-.133.662-.125-.105-.002-.863.125-.903.129-.276-.012 1.382-.3 1.174-.328-.402.101-.927.14-1.387.24-.21.044-.252.1-.278.105-.383.088-.176-.001-.304.026-.071.011-.8.29-.692.12-2.43.808-.67.223.86-.096-.475.142-1.417.357-1.828.501-.147.05-.045.068-.292.157-.521.14-2.912 1.108-3.488 1.47.354-.215.223-.202-.055-.044a1.314 1.314 0 0 0-.057.034c-.194.124.043.057-.006.093-.06.043-1.493.816-1.725.957 1.055-.625.789-.533-.12-.026l.371-.26c-.52.317-1.675.88-1.97 1.073-.046.03.146-.029.122-.012-.26.168-1.198.647-1.234.684-.03.031.379-.158.242-.06-.028.02-.434.182-.797.404-.135.082-.032.071-.066.093-.279.18-.142.024-.665.332-.383.226-.638.448-1.183.73 1.797-.917.304-.114-.417.324-.116.07.021.077-.7.443 1.43-.963-.461.18-.855.4-.022.012-.053-.026-.246.082-.016.01.023.025-.154.128-1.689.982-.62.335-.96.49-.144.065-.947.573-1.17.7-.05.029-.044-.015-.242.098-.349.2-.645.41-.875.543-.026.016-.055-.03-.485.233-.12.074-.249.168-.066.083.606-.284 1.663-.983 2.344-1.31.622-.297-1.262.772-1.36.828.026-.02.281-.19-.059-.004-.322.177-.86.59-1.346.841-.036.019-.42.152-.442.152.016-.013.589-.357.495-.33-.012.003-.384.214-.44.226-.071.015-.331-.072-.413-.032-.21.104-.055.07-.188.141-.285.154-1.292.654-1.293.735l.493-.263c-.897.515-.499.325-.62.408-.13.09-.122.015-.428.181-.067.036-1.331.766-1.295.775.679-.431.461-.22.492-.236.126-.065.262-.192.428-.284 1.164-.65.027.07.31-.07.096-.047.265-.185.307-.207.133-.068.16-.027.244-.08.198-.122-.072-.048-.057-.06.16-.14.895-.494.49-.18.278-.126.265-.223.493-.31.453-.174-.182.164-.346.27-.587.381-.785.453-1.64.95-.308.18-.653.426-.796.51-.09.052-1.02.402-.929.624-.344.168-.944.327-1.283.526-.305.18-.166.198-.193.217-.042.03-.417.234-.537.316-.14.095-.05.082-.278.225-.566.358-.594.274-.656.303-.726.336-.363.272-.511.367-.139.09-2.173 1.185-2.582 1.451l.491-.337c-.334.128-.618.388-.672.308.014.171-.673.44-.862.552-.074.044-.056.064-.15.118-.365.212-1.206.662-1.4.787-.835.54 1.422-.625 1.599-.719-.35.196-2.302 1.34-1.36.893.146-.07.36-.27.437-.316.522-.316.136-.027.18-.044.075-.032.396-.282.492-.328.032-.016-.139.145.369-.14-.224.19-1.67.956-1.852 1.073-.062.041.41-.092-.865.498l.059.005-2.033 1.164c.061-.064.418-.324-.057-.043-.273.162-.041.096-.066.111-.216.139-3.806 2.152-5.14 2.908a2.328 2.328 0 0 0-.19.119c-.161.096-.46.467-.471.5-.158.147-.484.85-.475 1.021-.012.097.049.013.034.098-.012.08-.047-.009-.051.015-.024.095-.054.545.084.973.125.433.407.79.514.928-.07-.08-.29-.312-.434-.576-.151-.26-.23-.535-.244-.52-.006.006.03.288.069.336-.008.11.233.353.31.5.01.016-.1-.004.082.25.067.09.289.257.5.47.053.031.134.083.247.144 1.16.627 3.759 2.098 3.996 2.156.009 0-.475-.29-.126-.134.463.206.001.106.514.396.08.046 1.526.814 1.577.832.47.171-.762-.53-.752-.536.054.005 1.108.562 1.148.59.036.025-.861-.35.182.172l-.336-.222c.493.242.507.326.622.393.357.208.8.331 1.321.759.137.112-.134.008-.12.022.164.14.458.161.693.392.018.017-.655-.286.477.327l-.222-.15c.169.07 1.32.68 1.473.768.443.256.021.098.477.336-.248-.232 1.132.504 1.018.525.236.023 1.372.72 1.92 1.019.347.189 1.074.537 1.181.6.132.078.06.112.296.255.068.042.811.391 1.413.792.117.077.324.311.084.211-.412-.17-1.11-.646-1.131-.586-.022.065.993.568 1.256.721 1.217.706.47.383.49.42.059.09.728.451.76.474.106.082-.392-.14-.415-.115-.026.033.585.45.432.383-.22-.097-.787-.475-.83-.495-.512-.231.118.22.282.363.05.044-.187-.056-.142-.027.684.445.215-.038.685.231.409.235-.13.012-.143.012.019.015.524.293.593.357.034.03-1.344-.575-1.316-.496l1.281.652c-.002.081-.582-.294-.648-.321-.133-.055.2.167.175.18-.017.007-.452-.17-.09.051.124.076.418.177.86.476-1.656-.822-.55-.176-.515-.127.034.047-.769-.319.177.181-.026.146-.041.029-.32-.094-.342-.151.393.3-.788-.38.036.095.998.61 1.05.644.041.028-.188-.058-.117-.007.842.6.25.214.472.427.022.02.858.507.203.166-1.193-.622-1.643-.972-1.937-.903.833.55 1.955 1.01 2.222 1.153.41.218-.032.026.013.063.018.014.367.199.371.205.178.27-1.563-.844-2.146-1.13l.425.31-.624-.335c.967.575.028.033-.278.008-.069-.005.603.305-.175-.028.538.312.352.24.863.477-.038.035-1.175-.517-1.626-.733 1.524.889.726.25 2.021 1.06.278.081-.367-.254-.31-.235.204.07.615.358 1.206.533.096.028-.238-.226.3.069.06.033.374.265.371.269-.066.013-.397-.185-.421-.178-.022.008.363.205.362.21-.015.053-.325-.153-.287-.114.085.089 1.396.931-.37-.064 1.51.748.218.05-.37-.242-.15-.075-.203-.067-.418-.17-.277-.133-.585-.317-.727-.388-.153-.075.663.454-.56-.234.592.406 1.738.935 2.33 1.316 1.192.769-.93-.355-1.155-.465-.059-.028.116.117.075.098-.067-.032-1.251-.697-1.388-.73-.135-.032.435.234.458.289.013.035-1.454-.707-.68-.268.533.302 1.575.75 1.691.938l-2.391-1.265 1.242.815c-.896-.47-1.643-.928-2.516-1.334 1.967 1.218-.711-.264-.749-.265-.013.004.733.532.853.619-.728-.347-2.89-1.495-1.694-.696-.21-.147-.781-.375-.8-.376.044.091 1.268.71 1.046.65-.258-.068-.538-.315-.892-.5-1.818-.944-1.47-.406-3.254-1.427l.092.088-5.866-3.237c-.814-.334-2.885-1.39-3.884-1.944a55.01 55.01 0 0 1-1.241-.74c-.131-.09.634.318.305.104a24.781 24.781 0 0 0-.52-.291c-.742-.375-1.57-1.167-1.495-1.056.21.242 1.012.806 1.148.885.503.309-1.34-.498-2.352-2.407-1.095-1.866-.756-4.241-.705-4.425a6.71 6.71 0 0 0-.132.564 6.73 6.73 0 0 1 .386-1.602 6.62 6.62 0 0 0-.15.65c.15-.609.48-1.4.812-1.888.052-.08-.043.153.079-.037.125-.187.05-.186.242-.457.035-.066.114-.161.219-.275-.205.22-.36.386-.325.35.133-.36 1.34-1.394 1.152-1.175-.046.002-.41.378-.718.706.464-.472 1.268-1.137 1.657-1.31l.063-.036c1.277-.727 2.55-1.484 3.844-2.188-1.316.794.054.072.42-.157.08-.05.013-.14 1.369-.874.861-.467.151.115 1.536-.758-1.149.523-.07-.078.787-.566.148-.084 1.35-.745 1.876-1.048.18-.103.426-.309.665-.445.164-.094.305-.138.549-.278A287.996 287.996 0 0 1 41.5 35.93c-.594.505.552-.24.612-.266.292-.119-.933.586-.434.333l2.035-1.166c-.567.3.679-.526.941-.62-.17-.053 3.158-1.653 3.625-1.967.097-.065-.6.254.958-.593.17-.091.125-.021.211-.074.052-.032.308-.32.68-.452.136-.047-.613.47 1.107-.54-.754.28 2.375-1.42 2.962-1.716l-.367.149c.587-.279.668-.375.796-.445.517-.28 1.242-.64 1.717-.914.556-.32.519-.39 1.184-.73-.163.072-.325.145-.488.216l1.355-.752c-.988.679.222-.119.308-.17.131-.079-.038.067.182-.064.022-.014-.03-.03.31-.228.71-.413.623-.305.923-.475.028-.016-.087.007.428-.294 1.637-.957.006.03-.055.07-.08.052.56-.136-.868.61.48-.251.56-.22.614-.248.053-.029.859-.494.903-.522.389-.246.014-.087.087-.138.061-.042 1.074-.546 1.236-.796.532-.155-.214.254-.992.716-.102.088.776-.379.821-.405 1.062-.6.508-.396.633-.544a.383.383 0 0 1 .028-.027c.124-.112.664-.323.152-.151 1.126-.613.467-.198.543-.23.115-.05.504-.273.557-.293.076-.03-.167.123.13-.008.049-.021.499-.297-.123-.031.819-.38.738-.382 1.056-.416.503-.408.456-.072.685-.152.611-.205.391-.27.42-.29.2-.14 1.934-.631 2.366-.739-.147.134-1.374.375-1.633.49-.863.35 1.265-.34.66-.015.26-.114.522-.223.787-.328.523-.04-.185.149 1.165-.177.207-.12-.957.222-.733.115.131-.069.92-.243.934-.26.006-.025-.7.148-.594.093.228-.152 2.88-.501.88-.14.558-.1.866-.003 1.345-.106.313-.055-1.494-.078 1.188-.297ZM43.841 64.918c-.285-.206.74.36.368.203-.02-.009-.353-.193-.368-.203Zm3.299-.084c-.006-.03.484.227.524.253.26.17-.351-.143-.524-.253Zm-.338-.778c-.253-.204 1.305.573 1.553.774-.317-.141-.973-.531-1.258-.667-.034-.016.08.195-.295-.107Zm-4.48-.617c-.019-.18 1.03.638 1.444.827.057.026-.33-.238-.181-.173.484.211 1.808 1.193.286.324l.001.001c-.397-.227-.13-.126-.148-.137-.829-.511-.643-.313-.782-.377-.296-.136-.2-.203-.705-.427.828.377.093.009.084-.038Zm1.815.753c.006-.021.62.304.647.322.306.197-.438-.193-.647-.322Zm-1.893-.582c-.035-.023.543.17.655.317.086.112-.565-.257-.655-.317Zm3.876-.412c-.217-.02.148.143.253.219.096.07.14.15.379.25l-.632-.469Zm66.297-2.325c-.365.298-2.156 1.449-2.243 1.518-.066.052.518-.23-.353.287h-.001c.691-.294 1.441-.979 1.534-1.036.093-.057-.017.086.004.074a72.697 72.697 0 0 0 1.062-.71c.032-.025-.189.022-.003-.133Zm-1.282 1.395c.059-.047 1.403-.965 1.179-.74-.152.154-1.514 1.005-1.179.74Zm1.53-1.112c-.107.105-1.469 1.022-1.533 1.055-.445.226 1.421-.992 1.533-1.055Zm-1.434.392c-.309.205-.802.5-.944.652.31-.204.802-.5.944-.652Zm2.361-1.632c-.79.46-.664.53-.885.67-.309.197-.344.092-.301.023-.214.22-1.278.926-1.885 1.343.555-.335 1.458-.876 2-1.215.155-.096.287-.218.418-.302.209-.131.054.021.065.017h.002c.285-.162.583-.472-.003-.096l.589-.44Zm-1.873 1.759c.45-.275 1.388-.972 1.042-.624-.174.174-.338.212-.365.228-.253.159-.764.511-.677.396Zm-4.23-.378c.373-.2-.429.348-.468.363-.12.041.302-.273.468-.363Zm4.692-.213c.381-.218-.555.404-.588.42-.261.132.416-.322.588-.42Zm.485.129c.088-.028-.049.152-.23.227-.078.032.025-.09.23-.227Zm-.147-.908c-.211.098-.82.602-.942.709.964-.677.644-.357.836-.448.407-.192.157-.285.106-.261Zm-68.918.17c-.056-.002.36.25.46.292.156.065-.37-.287-.46-.291Zm68.498.044c.328-.11.473-.435.064-.119-.019.016-.079.124-.064.12Zm1.972-.645c-.359.178-1.01.676-.825.575.082-.045.787-.503.825-.575Zm3.199-1.81c-.144.144-2.361 1.57-2.714 1.804.275-.271.561-.393.984-.678.114-.076.066-.082.078-.09.198-.133.069-.005.192-.085.077-.051 1.66-1.151 1.46-.95Zm-.248-.169c.383-.48-1.345.891-1.657.906 2.002-1.303-1.404.739.119.018-1.194.686-.359.274-.519.416-.171.153-.836.551-.774.58h.001l1.183-.798c-.458.15.373-.354.705-.45l.296-.289c.273.009.208-.25.646-.383Zm-2.967 1.43c.332-.248-.573.298-.708.46.169-.116.612-.39.708-.46Zm.835-.254c-.127.065-1.337.888-.824.593.041-.023.893-.608.824-.593Zm-73.327.076c.199.171 1.256.696 1.017.524-.04-.027-.872-.444-1.017-.524Zm69.574-.725c.035.046-.95.656-1.179.824.228-.204.806-.586 1.179-.824Zm-70.251.277c-.151-.127-.884-.468-.773-.39.033.023.851.457.773.39Zm76.622-.713c-.19.23-1.312.903-.589.372.07-.05.392-.219.589-.372Zm-78.588-.243c.075.099.576.325.848.485-.062-.078-.622-.369-.848-.485Zm-.394-.606c.222.06.695.36.993.505.411.199 1.19.39.8.41l-1.793-.915Zm78.484.303c-.199.14-.765.475-.824.556.189-.116.75-.466.824-.556Zm-78.377.052c.1.12.563.329.846.486-.075-.1-.574-.324-.846-.486Zm.156.049c.265.147.788.449.648.32-.023-.016-.635-.342-.648-.32Zm81.316-1.41c-.315.18-2.496 1.62-2.588 1.696-.027.022-.024.07-.009.063a136.01 136.01 0 0 0 2.597-1.758Zm-3.444 1.672c.315-.154.31-.311-.002-.057-.012.01-.01.062.002.057Zm-77.354-.42c.209.045.956.5.617.34-.094-.044-.457-.256-.617-.34Zm77.954.281c.427-.225.153-.228-.122.002-.016.013.102.009.122-.002Zm2.262-.776c.066.024-.835.586-1.06.747.174-.168.742-.528 1.06-.747Zm-6.036-.46c.539-.308-.798.626-.824.634-.024.002.541-.47.824-.633Zm-76.12.124c-.194-.135.432.165.647.321-.016.024-.613-.298-.648-.321Zm80.949.213c.22-.082.365-.333.055-.132-.092.06-.078.14-.055.132Zm-3.634-.65c-.214.142-.514.34-.591.346.147-.09.58-.372.591-.346Zm7.199-.973c-.53.238-1.869 1.34-.943.69.017-.013-.193.063.174-.173.031-.02.121-.007.568-.329.09-.065.213-.193.201-.188Zm-5.441-.616c.478-.25-1.587 1.083-1.652 1.115a.576.576 0 0 1-.071.03c-.067.065-.452.322-.521.315.118-.073.433-.285.473-.306a.62.62 0 0 1 .039-.019c.115-.122 1.639-1.085 1.732-1.135Zm5.674.406c-.118.065-1.258.808-.825.555.038-.022.826-.523.825-.555Zm-1.656.417c.592-.32.167-.194-.136.034a.569.569 0 0 0 .136-.034Zm1.291-.547c-.179.124-.693.43-.706.478.18-.125.696-.431.706-.478Zm-5.18-.011c-.563.39-.01.075-.589.44.111-.13.197-.195.589-.44Zm-82.872-.302c-.284-.206.74.36.368.203a18.32 18.32 0 0 1-.368-.203Zm82.982-.098c-.378.194.844-.6.47-.306-.024.018-.452.296-.47.306Zm8.344-1.417c-.045.024-.505.427-.904.674-.181.115-.33.212-.348.225-.218.173.048.012.37-.193.415-.26.845-.659.882-.706Zm-6.329.396c.207-.126.014.098-.232.21-.076.033.117-.14.232-.21Zm7.022-.885c.29-.302-.497.706-.83.894-.156.098.818-.828.83-.894Zm-95.013.387c.022-.024.459.242.631.331-.063.006-.461-.23-.63-.33Zm89.164-.546h.002c-.466.406-.633.35-.592.318.525-.416.22-.092.239-.098.043-.02.412-.321.351-.22Zm-90.201.03c-.034-.025-.235-.28.28.043.382.24.021.174-.28-.044Zm92.571-1.551a9.88 9.88 0 0 1-.593.395c-.017-.02.497-.366.58-.416l.005-.003c.075-.038.062-.019.008.024Zm3.793-.334c.077-.287-.026.004-.152.292-.125.289-.278.574-.133.352.022-.018.286-.613.285-.644Zm-98.042.234c-.004.044-.012.052-.023.036 0-.017.008-.03.023-.036ZM123 50.248c-.214.259-.108.267-.294.392-.036.017-.231-.043.069-.248.052-.043-.079.19.225-.144Zm-.174-.087c.017.046.007.127-.192.302.044-.072.143-.206.192-.302Zm-94.971-.29c-.046-.305-.05.315.001.309.01-.004-.004-.297-.002-.309Zm95.586-.104c-.078.055-.235.429-.159.34.016-.006.223-.374.159-.34Zm-.331-3.005c-.017.01.16.182.365.766.021.075.032-.042.113.267.005.02-.023.039-.011.102.057.143.069.935.042 1.093-.006 0-.013.01-.021.03-.056.183-.135.786-.088.69.083-.124.16-.593.123-.698a.685.685 0 0 0 .052-.157v.001c.039-.052.054-1.067-.275-1.633-.14-.284-.291-.464-.3-.461Zm.398 2.207c-.034.24-.109.46-.207.655a13.4 13.4 0 0 1 .207-.655ZM28.954 47.9c-.005-.013-.195.101-.352.255-.162.153-.286.344-.287.378.038-.14.618-.62.64-.633Zm93.627-1.379c-.032-.008.254.306.292.306-.058-.077-.258-.303-.292-.306Zm-.017-.174c-.041.002.294.302.298.314.078.038-.191-.258-.298-.314Zm-90.155-.451c-.038.015-.519.296-.493.31.253-.105.664-.382.493-.31Zm85.632-5.834c-.1-.056.025-.182.424.087.052.036-.229-.053-.189-.022.025.018.94.496.989.517.048.018.018-.057.067-.04.056.02.608.346.907.495.564.28.645.269.692.292.135.066.347.207.621.342.595.294 1.329.648 2.055 1.006 1.38.651 2.423 1.91 2.809 2.817-.604-1.234-1.651-2.185-2.842-2.75l-.341-.163c.325.056-1.455-.638-.409-.242-.47-.206-4.452-2.152-4.782-2.338h-.001Zm1.239 4.615c-.286-.155-.251-.074-.234-.064.212.125.559.24.234.064Zm-83.909-.479c-.38.109-.962.654-.436.334.05-.03.425-.317.436-.334Zm-7.822-.272c-.05.02-.29.146-.491.255a5.34 5.34 0 0 0-.348.206c-.071.072.115-.038.367-.171.292-.15.683-.377.472-.29Zm90.358.403c-1.819-.857-1.98-1.12-.359-.247.032.017.476.286.359.247ZM35.861 44c.014-.011-.152.01-.181.026-.43.248-.066.163.181-.026Zm76.175-2.82c-.031-.008.285.21.385.257.142.066.026-.041.179.034.51.25.947.503 1.425.738.042.02-.277-.172.09.01.057.028.378.239.822.45 1.036.35 1.686.83 2.943 1.392a34.922 34.922 0 0 0-1-.552c-1.02-.531-2.867-1.445-3.946-1.979-.277-.137-.157-.042-.277-.1-.094-.046.043-.042-.282-.18-.155-.064.28.218.172.178-.07-.026-.395-.212-.511-.248Zm-75.062 2.147c.117-.145-.587.324-.738.39v.002c-.047.02.554-.496-.372.159.53-.279-.005.043.003.054.04.021.904-.51 1.107-.605Zm77.514-.84c-.05.015.582.306.653.303a12.479 12.479 0 0 0-.653-.303Zm-.653-.301c.509.317-.058-.026-.064.04.36.18 1.256.626.666.266-.116-.07-.436-.22-.602-.306Zm-75.742.243c.012-.005.01.047-.002.056-.33.232-.323.075.002-.056Zm.393-.755c-.138.058-1.461.828-1.234.758.081-.025.826-.498.863-.515.056-.026-.16.16.242-.08-.03-.005.175-.182.13-.163Zm1.572-.168c.133-.058-.297.232-.25.212.1-.044.177-.082.237-.114-.394.237-.807.478-.853.493-.21.067.361-.235.371-.243.023-.02-.416.048.495-.348Zm-1.583.415c.1-.084-.237.06-.368.148-.033.023.24-.04.368-.148Zm74.874.002c-.068-.01-.481-.144-.145.016.156.075.435.135.145-.016Zm-73.534-.32c-.154.081-.709.405-.739.402-.038-.011.654-.435.739-.401Zm73.264.202c-.072-.047-2.018-1.048-1.934-.921.17.074 2.381 1.21 1.934.92Zm-73.863-.314c.237-.164-.38.09-.613.294-.12.105.573-.266.613-.294Zm-6.98-.202c.153-.104-.515.227-.493.264.01.01.47-.25.492-.264Zm8.252-.021c.606-.318.183-.044-.337.271.16-.11.134-.165.337-.271Zm71.533.058c-.187-.098-.343-.106-.312-.085.136.094.513.224.312.085Zm-72.426-.267c-.498.198-.536.374-.189.178.136-.076.26-.206.189-.178Zm.971-.187c-.05-.017-.632.367-.494.31.088-.035.524-.298.494-.31Zm1.22-.398c-.153.131-.729.436-.984.563.15-.14.7-.41.984-.563Zm-1.58.377c.102-.109-.112.015-.196.045-.513.178-.232.16.195-.045Zm1.605-1.003c.035-.05-.172.082-.324.155l.001-.001a6.522 6.522 0 0 0-.908.528l1.232-.682Zm68.437.312c-.061-.037-.901-.406-.579-.201.223.142.287.109.343.136.062.03 1.355.748.236.065Zm-67.339-.625c-.085.03-2.084 1.149-.925.55.07-.035 1.172-.633.925-.55Zm-.117-.063c-.242.11-.804.477-.617.397.115-.049.895-.524.617-.397Zm65.512.061c-.073 0 .555.298.65.301-.167-.089-.591-.3-.65-.3Zm-63.316-.79c.001.034-.63.368-.781.46-.192.118.07.027-.264.203-.21.111-.138-.03-.184-.009-.041.02-.736.47-.496.232h-.001c.07-.07.604-.355.73-.413.02-.01-.036.099.198-.04.189-.11-.13-.01.248-.21.38-.203-.096.124-.062.108.048-.022.61-.375.612-.33Zm71.632.712c-.21-.116-1.127-.566-.785-.36.054.032.755.38.785.36Zm-9.224-.497c-.063-.037-1.547-.774-1.053-.477.15.091 1.512.757 1.053.477ZM113.95 38c-.625-.242 1.87 1.039 1.242.646A61.763 61.763 0 0 0 113.95 38Zm-67.905-.055c.328-.17.038.053-.185.157-.019.008-.102-.008.185-.157Zm1.321-.811c.059-.033 1.28-.743.84-.424a127.8 127.8 0 0 1-2.096 1.162c-.121-.006.667-.38.849-.491.032-.02.026-.08.204-.186l.057-.024c.06-.02.129-.028.146-.037Zm55.09-.485c-.137-.147.429.12.785.328.081.048.358.265-.001.104.049-.072-.482-.372-.784-.432Zm-.344-.354c.142.025.525.228.786.36-.073-.003-.598-.27-.786-.36Zm-60.994-.117c-.134.078-.74.4-.74.419.005.029.694-.34.74-.42Zm60.054-.229c-1.212-.55-.828-.617.688.219l-.159-.044c1.775.915.117.075-.328-.13-.169-.078-.047.026-.2-.044h-.001Zm-51.123-.113c-.1.102-.485.305-.741.447.1-.102.484-.305.74-.447Zm.125-.126c.001.034-.54.347-.617.38-.116.048.438-.295.617-.38Zm59.04-.151c.046-.015.572.277.769.37-.045.015-.571-.278-.769-.37Zm-59.018-.36c.175-.061-.55.385-.74.447-.232.074.708-.436.74-.448Zm49.445-.06c.068.03.554.306.737.39-.277-.074-1.192-.578-.737-.39Zm-45.996-1.826c.043-.068-.593.305-.614.313-.03.01-.181-.025-.243.005-.1.05-1.805 1.01-2.093 1.142.814-.27.675-.337.739-.373.138-.076.48-.218.736-.37-.288.183-.576.368-.863.552.242-.123 2.309-1.221 2.338-1.269Zm44.545 1.168c-.063-.042.15.023.237.066.345.171-.064.05-.237-.066Zm-1.58-.837c-1.076-.715 1.07.465 1.708.756-.64-.24-1.429-.642-.38-.047-1.584-.767-.899-.5-.96-.537-.071-.042-.321-.142-.368-.172Zm1.034.327c.146.058.456.254.33.22-.16-.046-.366-.234-.33-.22Zm7.89-.376c.203.047.707.323 1.038.487-.169-.038-.757-.348-1.038-.487Zm-.159.237c.049-.032-.856-.447-.523-.236.083.052.502.244.523.236Zm-9.95-.89c-.342-.23 1.18.45 1.48.637 0 .038-1.428-.603-1.48-.637Zm-40.926.13c.325-.132-.698.435-.368.203.019-.012.354-.198.368-.204Zm-.113-.178c-.154.083-.501.248-.614.322-.319.205.52-.222.614-.322Zm.86-.45c-.186.058-.648.322-.49.28.015-.004.436-.215.49-.28Zm47.913-.064c.028.011.482.24.501.253.358.228-.943-.428-.501-.253Zm-46.679-.649a.795.795 0 0 0-.248.211c.143-.053.483-.301.248-.21Zm44.175-.487c-.038-.088.752.354 1.037.486.04.09-.751-.354-1.037-.486Zm-43.308-.067c-.036.016-.75.403-.739.427.2-.088 1.158-.623.739-.427Zm42.766.12c.178.127.492.19.329.076-.176-.092-.347-.09-.329-.076Zm-42.03-.417c-.225.08-.775.45-.618.38.11-.05.843-.46.618-.38Zm.37-.242c.377-.275-.446.204-.736.37-.002.037.71-.351.736-.37Zm40.528.088c-.263-.108.142.178.486.264-.161-.072-.46-.252-.486-.264Zm.163-.244c.06-.001.595.275.788.362-.142-.026-.526-.23-.788-.362Zm-.306.19c-.404-.262-.425-.155-.11 0 .112.054.123.01.11 0Zm-37.802-1.337c-.203.176-1.654.954-1.476.8.143-.123 1.22-.697 1.476-.8Zm34.3-.735c.014-.038.002-.03.219.073 3.442 1.645 2.628 1.393-.218-.073Zm-7.203.657c.195.078.527.262.76.375-.051.005-.69-.31-.76-.375Zm7.009-.393c.274.129.955.512.91.423-.225-.103-.795-.4-.91-.423Zm-8.065-.085c.318.14.687.342 1.013.502-.144-.043-.895-.407-1.013-.502Zm-24.191-.415c-.168.087-.63.369-.616.324.255-.152.506-.315.616-.324Zm-.059-.293c.174-.083.242-.074.315-.127.024-.018.01-.055.094-.115l-.409.242Zm.52-.307c.253-.138.747-.37.663-.393h-.001c-.221.13-.441.262-.662.393Zm1.315-.785c-.573.282-.126.194.054.094l.026-.015a2.68 2.68 0 0 0 .233-.218c-.13.053-.232.1-.313.139Zm1.241-.495c-.065.02-.583.313-.586.341.313-.141.869-.438.586-.34Zm1.08-.483c-.116.033-.461.193-.486.235.177-.065.754-.314.486-.235Zm22.532-.3c-.05-.092.96.434 1.036.486.293.206-.947-.457-1.036-.486Zm.185.167c.276.202-1.21-.57-.495-.26.033.014.48.25.495.26Zm-18.497-.892c.387-.02-.928.2-.509.085.022-.007.488-.085.51-.085Zm15.837-.15c0-.038-.572-.304-.507-.247.022.019.503.275.507.246Zm-13.523-.053c-.059-.061.76-.042.915-.03-.059.021-.87.068-.915.03Zm1.523-.141c.383.03.854.06.864.028a.186.186 0 0 0 .056.022c.032.007.441.03.617.064 1.06.108-4.122-.194-1.108-.154-.143.011-.287.025-.429.04Zm6.577-2.202c.207.082.91.327.605.186-.047-.023-.611-.216-.605-.186Zm-5.031-1.38c.633.034.299-.086.998.032l-.182.006c1.006.11 2.144.389 3.26.71.283.083-.024-.073.342.055.294.103.6.267.436.226-.04-.011-.629-.236-.934-.315-.903-.233-.69-.112-.743-.126-.06-.015-.62-.185-.934-.244-.79-.148-1.156-.183-2.243-.343Zm-7.042.539c-.489.111-.96.394-.363.226.063-.018.423-.217.363-.226Zm6.065-.346c-.089.009.542.105.726.108.42-.001-.543-.133-.726-.108Zm-1.814-.08c-.413-.057-1.117-.007-.938.064.774-.045-.1-.078.938-.064Zm1.02-.25c.148-.005.294-.124 1.066-.018l.003.002c.224.032-.035.04.006.053.017.004.712.117.129.08-.891-.046-.079-.092-.554-.12-.059-.009-.96.026-.91.044.005.001.276-.006.321.001.168.026.086.058.11.06.081-.003 1.5.027 1.7.112-.064-.008-2.264-.098-2.352-.078-.057-.006-.033-.104-.093-.114-.034-.008-.968.049-1.092.051a.89.89 0 0 1-.083-.003c.142.02-.698.072-.682.04.013-.016.6-.05.62-.047l.025.003c-.122-.049 1.864-.078 1.436-.124.578-.022-.083.078.35.057Z"/><path fill="#000" d="M78.762 127.957c-.078.036-1.195.067-1.25.015-.073-.058 1.039-.007 1.25-.015Zm46.103-68.707c.034 0 .058 1.02.074 1.071.027.086.139-.368.164-.367.005.026.031.74.074.497.043-.247.045-.881.05-.906.026-.121.05.989.065 1.023.01-.017.056-.58.069-.596.014-.015.044.439.087.618.033.132.058-.254.063-.188.003.05.003 1.096.009 1.152.008.077.047-.169.056-.133.014.051.001.39.015.346.011-.036.144-1.348.18-1.34.06.015-.079 1.407.161.111.001-.012-.015-.32-.014-.333.044-.195.112.817.1-.42.076 2.3.092.287.194.626.039.132.056 1.024.062 1.029.049-.087.01-.372.035-.468.013-.053.067.745.101.565.018-.093.011-.94.015-.975.032-.335.068.076.091.003.015-.05.017-.553.019-.574.01.027.069.676.09.817.017.11.044-.303.051-.226.044.462-.068 1.445.09.498.009-.057.005-.411.007-.427.044-.221.049.439.086.557.062.2.027-.745.072.043.041-.592.039-.922.027-1.614.032 1.917.196 2.593.192.465-.003.677.089.602.09.804.001.127-.09 1.107.116.657.025-.056-.007-.652.045-.466-.013 1.43.034.03.041.029.121.019.022 3.515.036 4.116.016.697.111 1.317.111 1.469 0 .499-.049.085-.066.196-.018.113.075 1.527.07 1.602-.021.273-.078-.002-.081.024-.035.34.009 2.245-.004 2.779.037-.017.041-1.088.101-.42.069.774-.093.823-.102.843l.004 10.698c.087-.045.022-2.376.033-2.43.068-.31.067 3.628.036 4.111l.057-1.101c.1.626-.03 2.013.014 2.92.015.292.054-.27.056-.258.039.329.009.856-.044.462.05.803-.004.686-.009 1.302 0 .032.04-.232.057.255.008.229.009 1.448.044 1.612.016.063.171-.552.036-.628.066-1.326-.062-.424-.058-.939 0-.079.076.103.041-1.194.135.247.034 1.739.05 1.996.034.528.104-1.648-.002-2.047.107.187.015-.154.019-.64.005-.53.037-.299.037-.585.001-.786-.074-.461-.007-1.109-.209.631-.027-1.108.028-1.615l.031 2.475.033-.142-.005.652-.031-.104c.068 1.12-.009 1.393-.01 1.485-.009 1.176-.007 2.535-.008 3.725 0 .178.069.056.015 1.356-.017.415-.071.024-.063.494.145.588.03.577.03.752 0 .501.035.808.036.855l.001.199a9.722 9.722 0 0 1-.333 2.498c-.004.016.156-.404-.004.13-.045.197-.766 1.803-1.665 3.022a9.26 9.26 0 0 0 .687-.965c-.118.2-.609.995-1.124 1.577-.505.588-.978.995-.656.752.407-.296 1.093-1.289 1.252-1.333-.277.355-1.115 1.383-2.292 2.167-1.304.885-2.737 1.866-2.928 1.975-.043.024.197-.183.136-.148-.048.028-.953.65-1.083.72-.077.041.312-.25.272-.24-.041.016-1.18.765-1.219.849.269-.205 1.063-.72.674-.409-.05.039-.341.199-.403.248-.564.451 1.211-.763 1.489-.949-1.087.806-2.861 1.916-4.138 2.825-.547.321.744-.575.132-.202-1.271.774-.298.266-.333.296-.284.24-1.446.765-1.355.901-.46.281-.328.166-.946.609l.268-.139c-.647.55-2.26 1.349-2.162 1.26.272-.242 1.086-.699 1.151-.745.096-.068.273-.387 1.423-.983.374-.387-1.734 1.077-.808.361-.647.452-3.381 2.202-3.741 2.504-.043.036.234-.017-.462.385-.33.19.43-.324.271-.247-.487.235-6.503 4.352-7.649 5.13-.074.05-.067.003-.14.052-.224.153-1.015.749-1.426 1.007.869-.509-.748.587-1.163.859-.632.412-.627.337-.904.508-1.069.661-2.602 1.868-3.486 2.302.118.082-1.437.89-2.094 1.332-.515.346-1.211.922-.487.499-.624.416-1.262.859-1.872 1.282-.284.197-.564.381-.841.553-.152.094.038-.066-.222.094-.023.014-.036.068-.26.203-1.885 1.072-1.004.481-1.37.65-.21.088-.364.152-.476.202a23.556 23.556 0 0 0 2.698-1.511c-.306.133-2.396 1.416-3.084 1.652-.02.008.022-.05.019-.058h-.007c-.241.122-1.833.746-1.487.671.095-.018.841-.282 1.693-.675-.227.113-.034.084-.073.104-.484.257-1.75.687-2.203.818-.103.032-.085.061-.102.067-.413.122-.271-.022-.666.198-.778.109 1.389-.444 1.208-.487-.108.112-4.91 1.229-4.911 1.198a1.022 1.022 0 0 0-.229-.012c-.31.013-1.686.103-1.925.114-.04.005-.022.096-.072.097-.128.018-1.815-.087-2.447-.11.339.044.68.081 1.02.11-2.06-.138-1.743-.13-1.06-.019.034.003.067.01.1.013.527.071 1.209.117 1.226.124.034.093-3.472-.293-2.782-.313.094.017 1.702.246.91.092-.14-.021-1.172-.158-1.225-.18-.354-.087 1.901.17 1.633.057-.552.005-1.247-.123-1.869-.225-.283-.046-.361-.016-.397-.022-.52-.098-.22-.084-.392-.12-.093-.014-1.131-.172-.904-.262-3.306-.935-.969-.078 1.103.364-.667-.08-1.926-.456-2.485-.641-.2-.063-.099.024-.439-.086-.458-.141-1.996-.77-3.168-1.442-.583-.327-1.095-.616-1.352-.761.464.233.356.116.002-.072s-.091.033-.163.002c-.079-.034-1.714-.957-1.994-1.099 1.256.653 1 .455-.053-.122l.48.209c-.63-.317-1.893-1.091-2.262-1.264-.058-.027.12.119.09.105-.321-.153-1.363-.767-1.425-.785-.048-.012.389.266.212.19-.039-.016-.45-.305-.888-.527-.162-.082-.086.006-.127-.014-.346-.165-.115-.117-.736-.441-.454-.237-.822-.36-1.435-.718 2.005 1.185.302.221-.566-.22-.139-.07-.058.058-.859-.417 1.807.826-.463-.332-.92-.582-.026-.014-.012-.062-.236-.185-.018-.009-.009.033-.217-.077-1.993-1.053-.709-.399-1.07-.632-.153-.099-1.14-.58-1.4-.72-.059-.032-.016-.048-.247-.172-.41-.219-.793-.384-1.064-.528-.032-.017-.008-.066-.526-.327-.146-.074-.317-.144-.12-.02.652.412 1.978 1.03 2.72 1.49.674.418-1.523-.767-1.642-.831-.042-.023.4.186-.034-.055-.37-.206-1.096-.493-1.642-.812a6.458 6.458 0 0 1-.425-.328c.02.007.71.361.622.287-.017-.012-.444-.242-.492-.288-.06-.056-.148-.338-.239-.392-.23-.14-.099-.015-.25-.101-.327-.184-1.44-.857-1.511-.814l.56.317c-1.053-.562-.62-.293-.775-.362-.167-.074-.093-.104-.443-.301-.077-.043-1.563-.834-1.55-.797.838.406.5.311.536.332.141.082.345.144.537.249 1.35.74-.047.06.264.248.107.065.343.151.39.178.148.088.128.132.23.184.24.119.002-.087.018-.083.232.076 1.033.571.484.358.296.191.375.131.602.296.453.327-.267-.085-.47-.182-.73-.347-.924-.492-1.934-1.025-.363-.192-.813-.386-.981-.475-.108-.056-1.032-.73-1.175-.536-.377-.23-.91-.699-1.313-.909-.361-.189-.288-.054-.323-.068-.054-.024-.484-.264-.637-.333-.178-.081-.108-.006-.387-.142-.693-.338-.636-.406-.703-.448-.779-.496-.483-.197-.667-.285-.173-.084-2.494-1.395-3.002-1.635l.627.28c-.334-.242-.757-.371-.717-.46-.148.098-.84-.395-1.065-.513-.088-.046-.094-.019-.205-.078-.432-.228-1.39-.772-1.629-.886-1.033-.495 1.496.986 1.696 1.101-.406-.221-2.718-1.436-1.699-.798.158.099.48.194.573.241.627.32.113.112.157.143.078.053.514.221.619.286.035.022-.223-.054.368.268-.317-.11-1.956-1.049-2.182-1.157-.08-.038.35.329-1.018-.542l.034.055-2.384-1.276c.098.024.568.221.002-.073-.324-.169-.115.008-.143-.005a182.15 182.15 0 0 1-2.192-1.181c-2.172-1.062-3.86-3.626-4.146-4.417-.237-.435-.684-1.742-.689-1.852a9.714 9.714 0 0 1-.24-2.203c.004-.383.006-.71.004-.84-.004-.215-.05-.011-.048-.203.002-.178.047.006.049-.046.016-.44-.043-3.783 0-4.577-.013.485.078 2.903.11 2.858.004-.01.038-.6.02-.721.04-.2-.079-.888-.056-1.263.003-.042.07.124.082-.544.004-.23-.048-.833.01-1.439-.028-.878.059-5.494-.013-5.813-.003-.009-.028.64-.057.202-.04-.584.092-.06.103-.74.002-.106-.011-1.99-.02-2.058-.072-.566-.102 1.033-.112 1.057-.021-.057-.035-1.43-.03-1.488.005-.053.104 1.068.067-.28l-.036.464c-.022-.634.045-.694.05-.848.012-.477-.09-.993.037-1.758.034-.2.071.13.077.109.045-.243-.076-.553.014-.918.007-.028.06.821.06-.664l-.025.307c-.02-.21-.03-1.712-.026-1.916.013-.59.076-.076.068-.67-.085.38-.097-1.423-.023-1.322-.093-.253-.02-1.788-.019-2.509.002-.455-.039-1.383-.034-1.528.006-.176.068-.123.082-.44.004-.091-.042-1.038.023-1.87.013-.16.12-.5.147-.2.046.512-.04 1.479.023 1.47.067-.015.027-1.32.036-1.672.04-1.619.112-.691.134-.727.053-.109.052-.995.057-1.033.021-.153.063.472.095.485.042.011.118-.842.133-.65.02.278-.045 1.065-.041 1.114.04.648.138-.24.186-.485.015-.074.039.22.043.16.065-.94-.137-.198-.123-.823.012-.555.075.152.08.139.003-.028.007-.694.03-.8.01-.05.134 1.675.19 1.61l-.036-1.659c.072-.042.019.75.026.834.015.166.052-.296.075-.276.015.012.067.551.088.063.008-.168-.043-.522.009-1.135.066 2.133.107.655.133.592.026-.056.086.954.075-.28.141-.053.044.028.07.379.03.43.076-.564.041 1.009.066-.09.061-1.348.067-1.42.004-.058.037.222.048.122.128-1.184.07-.371.152-.714.007-.035.037-1.149.049-.298.021 1.553-.073 2.203.128 2.464.087-1.149-.042-2.541-.044-2.89-.003-.535.037.018.049-.048.003-.025 0-.478.003-.489.153-.328.003 2.05.03 2.8l.068-.603.003.818c.046-1.297.017-.047.14.277.028.073-.02-.78.058.194.018-.718.044-.49.009-1.14.05.021.105 1.48.13 2.056.057-2.036-.126-.876-.03-2.635-.06-.327-.049.513-.059.444-.036-.246.021-.822-.106-1.517-.021-.113-.086.366-.082-.343 0-.08.055-.53.06-.524.042.06.026.507.044.526.017.017.007-.482.012-.484.054-.014.02.416.037.354.037-.136.153-1.929.119.412-.061-1.944-.06-.25-.036.508.006.193.038.242.05.517.014.354-.001.768.005.952.006.196.083-.922.06.696.076-.824-.005-2.28.048-3.088.108-1.632.131 1.136.142 1.427.002.077.046-.18.048-.13.004.089-.015 1.657.02 1.812.037.153 0-.576.037-.625.025-.026.07 1.862.087.837.012-.708-.09-2.013.02-2.232l.027 3.123.125-1.71c.013 1.17-.033 2.18.026 3.289.133-2.66.106.847.122.904.01.013.12-1.036.139-1.205.042.93.061 3.756.195 2.103-.03.297.043 1.013.05 1.017.06-.092.02-1.677.074-1.419.062.3-.022.72-.015 1.18.035 2.365.343 1.716.295 4.088l.033-.142-.053 7.733c.094 1.008.152 3.692.142 5.01a72.412 72.412 0 0 1-.06 1.667c-.017.183-.023-.818-.055-.366-.006.097-.027 2.301.026 2.144.006-.248-.02-1.021-.008-1.148.089-.888.018 5.913.054 6.25l.05-.452-.024 1.241v.034l-.005-.034-.04-.474c-.003.146-.004.308-.005.474-.002.284.028.587.054.817.006.053-.059-.078-.041.048.02.126.072.093.116.272.03.205.3 1.12.48 1.404.497.929 1.285 1.689 2.205 2.194.227.125.454.25.68.377-1.58-.807-.03.083.416.303.099.049.137-.054 1.687.817.986.554-.007.194 1.69 1.024-1.224-.787.027-.101 1.029.438.172.093 1.558.862 2.175 1.191.212.113.56.236.84.386.192.103.322.21.608.363 1.333.715 2.642 1.421 3.97 2.152-.849-.291.581.387.64.427.298.208-1.143-.56-.587-.23l2.387 1.277c-.643-.369.921.358 1.177.552-.06-.181 3.561 2.06 4.151 2.33.123.056-.622-.421 1.164.58.193.108.1.103.204.155.062.032.493.123.855.398.131.1-.83-.328 1.212.741-.746-.549 2.84 1.462 3.49 1.851l-.373-.262c.635.397.775.423.922.506.592.332 1.392.814 1.95 1.112.653.349.693.281 1.436.719l-.514-.339 1.565.863c-1.263-.565.26.147.358.197.156.081-.086-.002.175.133.028.014.008-.042.41.17.839.444.683.418 1.034.608.031.016-.062-.076.547.244 1.936 1.018-.024.02-.1-.016-.1-.047.487.444-1.121-.489.539.312.563.401.624.436.054.031 1.01.538 1.063.565.478.233.09-.03.184.012.078.034 1.195.708 1.53.732.486.409-.372-.069-1.3-.55-.146-.049.85.52.904.549 1.3.705.631.223.947.317.166.05.663.4.218.052 1.186.632.444.292.516.34.11.073.536.273.586.305.073.045-.206-.069.088.103l.007.004c.067.034.432.175.037-.066l-.096-.058.098.054c.657.353.63.284.839.49.606.083.341.276.55.381.558.267.45.061.481.068.218.061 1.805.662 2.225.731-.191.065-1.293-.383-1.543-.463-.855-.234 1.16.455.513.368.268.05.537.094.806.133.456.205-.236.082 1.07.357.227-.018-.92-.205-.68-.208.14.006.894.169.913.152.017-.015-.665-.143-.552-.152.24.019 2.73.494.82.21.529.097.785.276 1.257.291.302-.004-1.359-.347 1.165-.081.05.076-1.015-.061-1.042-.066-.038.003.136.172.17.183.116.078 2.735.094 3.29.079-.222-.046 1.968-.216 2.196-.319.06-.018-.182-.027-.117-.045.411-.099 1.548-.267 2.059-.426.569-.17.484-.197.515-.206.249-.08.06.016.213-.036.236-.06 1.774-.682 1.844-.74.021-.012-.245.055.078-.107.054-.032.056.061.992-.464 1.113-.653-.823.359-.383.044.771-.305.7-.384.896-.488.064-.034.532-.232 1.013-.55l.12-.083-.118.085c-.332.238-.67.464-1.017.679.272-.146.703-.419 1.04-.646.163-.11.308-.207.413-.272.168-.104.07.04.423-.201.075-.051.288-.381-.603.304-.105.004.357-.265.553-.416.03-.023.102-.182.396-.312.069-.028-.462.653 1.194-.699.054-.044-.163.062-.111.019.035-.03.495-.323.542-.361.047-.038-.19.078-.134.031.29-.24.78-.396.132.028l.674-.389c-.29.063.32-.253.615-.456 1.89-1.301.577-.502.883-.753.493-.404.197.023.946-.551.065-.05-.916.516.95-.688l-.812.558c.216-.017.977-.667 1.041-.712.716-.501.248-.139 1.293-.91.093-.069.317-.187.515-.337.82-.618-1.142.73-1.22.731-.018-.013 2.088-1.428 2.167-1.469.334-.172-.951.666-.678.548.102-.045 3.103-2.117 3.722-2.509.714-.451 1.11-.545 1.024-.682.287-.002.4-.209.49-.269 1.092-.718 1.095-.718 2.015-1.357.203-.141.404-.218.472-.274.039-.032-.068-.022.13-.175.275-.212 2.031-1.332 2.175-1.395.145-.063-.722.502-.542.437.624-.414 1.213-.826 1.84-1.243.261-.173.146-.056.258-.131.048-.031.926-.658.884-.644-.105.036-2.862 1.918-2.165 1.379.135-.104.672-.376.543-.4l7.452-4.95c-1.382 1.015-3.016 2.042-4.5 3.051-.204.138-.895.595-.788.578 1.272-.843 2.832-1.924 4.064-2.719.039-.024-.079.105.07.013.279-.174 1.127-.827 1.286-.913.028-.014-.446.372-.273.298.444-.191.433-.424.773-.651.263-.175 2.076-1.281 2.48-1.627.43-.367-1.317.842-1.218.711 1.133-.826 2.338-1.575 3.438-2.32l.064-.046c.014-.01-.132.044.045-.089.304-.236.413-.264.561-.383.167-.123.636-.675.702-.748a.646.646 0 0 1-.046.165c-.181.266-.321.294-.34.315-.075.077-.13.173-.203.24-.121.11-.205.151-.372.285-.116.091.028.043-.087.13-.021.015-.165.088-.303.162-.178.104-.347.22-.343.288.005.004.146-.083.381-.234.461-.274 1.319-1.011 1.81-1.917.516-.891.654-1.842.662-2.034-.05.307-.126.608-.225.901.221-.71.189-1.502.308-1.561l.001-.055.034-11.991c.013-.718.104-.325.078-1.506-.03.305-.058.61-.087.916.02-.606.059-3.286.041-3.722-.003-.056-.085-.135-.092-.804-.006-.595.055-.691.067-1.01.01-.266-.006-.565-.003-.645.003-.06.041-.085.047-.231.021-.462-.086-.088.036-.546l.014.335c.018-.558.074-1.32.102-.498.004.14-.033.02-.033.125.007 4.123.079.83.022-.614.054-.371.02-2.446.031-2.52.016-.096.059.26.097-.207.008-.1-.023-2.878.05-1.877.014.208-.002 1.538.001 1.86.115-.756-.05-2.528-.045-2.727.018-.804.099 1.544.113-.267.01-1.392-.067-.085-.1-.62-.018-.302.066-1.878-.044-1.835-.011-.54.047-.225.051-.292.004-.069-.029-1.128-.006-1.473.003-.042.06.089.065.046a33.15 33.15 0 0 0-.008-1.152c-.004-.023-.054.218-.066.118-.013-.117-.002-1.098-.016-1.158-.022-.077-.008 1.14-.064.938a17.184 17.184 0 0 0-.068-1.847c.013.092.015.635.011.824-.082-.089-.082-1.258-.017-.858-.035-.254-.053-.081-.086-.224-.008-.038-.009-.4-.023-.469-.003-.009-.034.364-.051.29-.03-.136-.023-1.229-.016-1.32.023-.252.05.64.084.715.006.01.073-.737.079-.76.064-.044.018.8.076.703l.037-.627c.058.806.028 2.297.094 2.682-.019-1.195-.017-2.445.132-2.443.063.002.101.517.117.497.057-.077-.005-.792-.002-.819.003-.02.006-.03.009-.031Zm-44.254 68.451a8.345 8.345 0 0 1-1.035.094l.114-.022c.285-.021.61-.046.921-.072Zm1.028-.138c.57-.01-.17.066-1.028.138.074-.013.119-.024.12-.033a.34.34 0 0 0 .08.007c.045.001.59-.085.828-.112Zm-7.964-.061.69.133c.511.141-1.28-.205-.69-.133Zm-5.54-2.015c.22.129.997.466.667.286-.142-.075-.607-.286-.666-.286Zm-1.519-.782c.231.141.599.332.76.401.098.043.125.045.016-.028a.112.112 0 0 1-.012-.008c-.069-.045-.737-.374-.764-.365Zm-.268-.314c-1.157-.761-.6-.215-.375-.115.031.014.403.133.375.115Zm11.675-.011c-.398-.062-1.074-.093-.912-.002.752.026-.09-.067.912.002Zm2.477-.043c.4-.087-.542-.018-.715.02-.085.024.539.022.715-.02Zm-.509-.363c.214-.005-.025.047.015.052.02.005.683-.014.134.056-.843.093-.088-.073-.536-.036-.054.009-.9.112-.855.12.005.002.262-.021.305-.018.161.013.085.053.108.053.08.011 1.42-.171 1.62-.159.067.037-2.149.265-2.24.226-.055-.005-.034-.103-.09-.112-.036.001-.921.03-1.038.011a1.893 1.893 0 0 1-.078-.011c.133.039-.67-.009-.647-.045a9.952 9.952 0 0 1 .613.037c-.113-.021 1.766-.019 1.358-.077.543-.048-.074.084.334.039.14-.018.265-.126.995-.136h.002Zm4.77-1.09c.278-.089.6-.158.457-.086-.035.019-.604.199-.886.298-.831.29-.608.263-.656.282-.054.02-.598.139-.892.212-.739.183-1.076.296-2.114.4.59-.121.254-.143.914-.235l-.161.059c.933-.187 2.014-.408 3.05-.777.262-.094-.06-.043.288-.153Zm-10.825.961c-.47-.098-1.005-.079-.414.049.063.014.463-.015.414-.049Zm-9.517-.492c.29.162.823.497.79.411v-.001l-.79-.41Zm6.432-.515c.18.094 1.232.453 1.27.451.293.047-1.13-.448-1.27-.451Zm-7.05.193c.189.117.224.185.32.225.032.014.057-.019.167.029l-.487-.254Zm-.925-.202c.304.157.616.306.694.401-.188-.11-.744-.391-.694-.401Zm23.246-.148c-.046.019-.58.259-.552.271.207-.066.86-.384.552-.271Zm-26.329-1.607c.206.07 1.43.768 1.69.95-.292-.097-1.945-1.036-1.69-.95Zm35.857-.284c-.129.116-.922.66-1.083.729.324-.237.736-.494 1.083-.729Zm.815-.6c-.03.053-.71.512-.812.548.191-.149.565-.379.812-.548Zm-38.666-.363c-.034.017.778.471.816.487.497.209-.476-.304-.816-.487Zm-.394-.105c.116.075.97.541.75.376-.22-.165-.915-.484-.75-.376Zm33.482.022c-.032-.019-.63.403-.537.366.032-.012.561-.349.537-.366Zm-34.352-.632c.211.138 1.321.746.87.461-.038-.024-.863-.488-.87-.461Zm-.552-.175c.141.103.588.29.353.122-.147-.087-.37-.135-.353-.122Zm-1.673-.959c.017.013.48.291.573.307-.173-.14-.715-.431-.573-.307Zm39.165-.274c.355-.169-1.266.884-.543.351.032-.024.525-.343.543-.351ZM53.4 117.68c.016.007.411.225.425.235.332.232-.852-.421-.425-.235Zm40.89-.633c.368-.183-.998.684-1.082.757-.119.007.989-.71 1.082-.757Zm-41.068.276c-.395-.188.539.364.692.401-.176-.099-.552-.334-.692-.401ZM49.8 115.29c.775.609.746.448.82.488.16.089.51.33.817.488l-1.066-.514c.267.158 2.607 1.496 2.678 1.504.09.005-.661-.389-.684-.404-.029-.022-.095-.178-.163-.219-.11-.068-2.095-1.146-2.402-1.343Zm55.204-.871c.044.012-1.43 1.075-1.491 1.107-.421.218 1.135-.91 1.491-1.107Zm-57.145.484c-.121-.082.553.254.747.375-.031.018-.668-.321-.748-.375Zm-.34-.131c.159.04.594.291.89.455-.158-.041-.593-.291-.89-.455Zm.68-.18c-.22-.175.857.429.889.453.17.13-.711-.311-.89-.453Zm58.428-1.134c-.613.495-1.465 1.058-.274.338-1.677 1.146-1.015.621-1.083.661-.083.049-.329.241-.385.271-1.317.691 1.082-.799 1.742-1.27Zm-62.635-.814c-.073-.114.782.42 1 .531.039.019.09-.016.301.094.08.041.162.14.189.155.064.036 1.51.798.932.555a177.531 177.531 0 0 1-2.422-1.335Zm56.522.618c-.233.166-.856.568-.948.667.287-.201 1.06-.67.948-.667Zm5.305.635c.144-.111.513-.313.405-.21-.141.132-.441.239-.405.21Zm-6.177-.446c3.623-2.503 2.893-1.849-.2.172-.027-.03-.028-.014.2-.172Zm7.187-.03c.369-.248.007.084-.205.194-.077.04.112-.132.205-.194Zm-63.21-.891c-.02-.013-.059-.098.264.091.368.215-.024.06-.264-.091Zm65.31-.504c-.239.228-1.262.863-.81.519.069-.052.62-.384.81-.519Zm-68.39-1.108-.002-.001c.109.03.717.375.852.46.023.015-.114.018.165.163.224.117-.075-.123.352.121.432.247-.174-.027-.138-.004.049.032.737.371.7.396-.03.017-.746-.393-.928-.485-.233-.117.021.077-.357-.14-.237-.136-.063-.141-.112-.172-.044-.028-.905-.439-.533-.338Zm69.748.128c1.93-1.26.14-.074-.321.252-.175.124-.005.055-.162.168l-.002.001c-1.249.895-1.076.501.623-.551l-.138.13Zm-6.791.215c-.49.261-.404.331-.068.103.118-.08.084-.111.068-.103Zm.677-.449c-.165.118-.511.317-.539.338-.261.2.249-.052.539-.338Zm.148-.507c-.11.122-.531.393-.813.579.035-.057.615-.437.813-.579Zm7.188-.149c-.046.067-.616.443-.814.579.111-.122.532-.392.814-.579Zm-71.114.394c-.078-.061-2.404-1.332-1.105-.571.076.044 1.34.754 1.105.571Zm71.622-.57c.093-.054.463-.216.094.049-.036-.08-.637.285-.878.543-.22.063.373-.35.784-.592Zm-72.405.065c.12.081 1.061.556.764.365-.258-.165-.957-.496-.764-.365Zm65.511.019c-.193.124-.294.288-.27.277.225-.11.476-.379.27-.277Zm-67.47-.692c.225.068.83.434 1.155.618-.22-.074-.872-.448-1.155-.618Zm68.564-.327c.106.004-.787.548-1.083.758-.104-.005.786-.549 1.083-.758Zm-66.82.659c.066.007-.188-.117-.353-.22l.002.001c-.188-.116-.696-.413-1.073-.566l1.424.785Zm-2.624-.677c.203.092.237.04.466.172.684.395.16.146-.466-.172Zm.88.049c-.015-.053-.748-.395-.606-.297.09.063.61.328.605.297Zm-2.012-.647c-.2-.159.448.213.463.218.033.012-.315-.355.638.279.14.093-.404-.156-.355-.123.104.069.189.12.258.159a21.19 21.19 0 0 1-1.004-.533Zm.008-.152c-.014-.04.821.381.846.475-.173-.1-.832-.447-.846-.475Zm1.62.303c-.496-.379-.297-.132.169.155.165.041-.087-.093-.168-.155Zm-.42-.298c-.503-.356-.688-.303-.284-.083.159.086.356.134.285.083Zm-1.306-.544c-.173-.057.612.388.666.412.305.135-.328-.301-.666-.412Zm72.709-.142c.43-.234-.97.697-.54.359.021-.016.515-.345.54-.359Zm8.134-.64c-.065.037-1.664 1.111-1.085.779.175-.1 1.623-1.084 1.085-.779Zm-81.424.471c-.044-.02.192.198.374.262.14.048-.21-.187-.374-.262Zm-.392.19c-.425-.185-.277-.257.053-.025.012.009-.036.032-.053.025Zm.998-.041c-.142-.097-1.704-.923-1.493-.75.076.062.992.507 1.032.532.057.038-.252-.066.229.182-.019-.032.281.069.232.036Zm5.87-.787c-.026.017.762.465.864.467-.158-.083-.846-.477-.863-.467Zm-9.585-.512c.602.347-.05.013-.047.03.01.048 1.05.571 1.27.709.21.036-.677-.375-.836-.48-.048-.032.812.261-.387-.259Zm78.555.245c-.002-.058-.935.605-.538.387.1-.055.538-.366.538-.387Zm7.739-.637c-.185.118-.639.421-.676.476-.045.069.614-.388.676-.476Zm-86.55.297c-.505-.269-.19.02.142.152.02.007-.109-.134-.142-.152Zm79.773-.676c-.139.143-.783.556-1.084.758.167-.17.73-.52 1.084-.758Zm-80.13.479c-.346-.293-1.222-.553-.588-.231.064.032.604.245.588.231Zm87.793-.982c.067-.045 1.52-.939.204-.193-.072.041-.924.666-.539.455.268-.147.276-.222.335-.262Zm1.421-.711c.175-.129 2.574-1.699 2.032-1.408-.087.047-2.201 1.429-2.032 1.408Zm-93.422-.566c.182.141.475.308.653.39.104.047.156.062.08.01a.694.694 0 0 0-.066-.037c-.204-.106-.67-.386-.667-.363Zm94.097.196c.17-.086.521-.383.271-.257-.206.132-.309.276-.271.257Zm-5.968-.798c-.016.051-.607.413-.812.558.015-.052.606-.413.812-.558Zm11.991-5.564c-.015.08-.679 1.376-.749 1.434-.53.895-1.567 2.114-2.776 2.903l-1.483.999c-.296.199-.135.128-.262.214-.1.069-.012-.058-.337.187-.155.116.371-.166.268-.082-.068.054-.438.276-.541.369-.027.025.368-.173.472-.246.148-.104-.022-.043.142-.153.543-.368 1.043-.667 1.553-1.011.043-.03-.329.182.063-.081.022-.015.088-.052.185-.108.208-.124.532-.333.869-.629 1.043-1.131 1.907-1.948 2.596-3.796Zm-4.464 5.267c.163-.113.39-.35.073-.144-.05.058-.428.389-.073.144Zm1.08-.721c.451-.31.799-.61.234-.232-.062.039-.159.106-.269.18-.147.097-.319.216-.432.29.605-.337-.062.044-.002.079l.469-.317Zm1.053-.962c-.14.143-.769.656-.784.67-.017.071.753-.576.784-.67Zm-93.517.226c-.006.013.534.306.56.319.195.088-.537-.355-.56-.319Zm88.195-1.051c-.606.481 2.102-1.293 1.355-.88a88.67 88.67 0 0 0-1.355.88Zm-96.683-2.85c.021.384.706 2.38.79 2.379-.024.036-.796-2.202-.79-2.378Zm104.621-.026c-.484 1.39-1.039 2.043-1.12 2.133-.107.08.264-.367.834-1.571.03-.045.332-.732.286-.562Zm-5.185 1.11a12.86 12.86 0 0 1-.579.447c-.119.086-.157.122-.011.038l.026-.016c.117-.065.574-.43.564-.468ZM27.38 98.07c-.139-.105.442.907.325.618-.033-.06-.267-.484-.325-.618Zm-.356-1.313c.068.186.291 1.022.226.885-.038-.028-.284-.945-.226-.885Zm97.068-8.265c-.038 1.253.002 2.447.015 3.693-.094-.365.072 1.832-.037.546.008.183.015.793.02 1.563.099 1.33-.83 3.071-1.01 3.208v.001c-.064.075-.164-.055.103-.36.035-.04-.058.194-.027.163.037-.016.471-.781.469-.83.013-.041-.056-.015-.045-.058.017-.046.251-.54.312-.82.119-.525.06-.593.07-.635.015-.126.069-.337.072-.598v-.071c-.001-1.776-.036-4.42.058-5.802Zm-.197 7.418Zm3.711-.126c.076-.342.073-.857.003-.34-.075.453-.012.368-.003.34Zm-104.905-2.42c-.013.013-.013.612-.011.643.05.631.047-.65.011-.643Zm.018-1.198c-.007.033-.017.055-.033.058.018-.088.028-.096.033-.058Zm104.951-2.42c-.029-.143-.037.586-.021.8.035.066.025-.78.021-.8Zm.1-.253c.002.188-.016.769.002.817.022.061.036-.775-.002-.817Zm-.269-5.589c-.019.255.028 1.066.071 1.243a2.521 2.521 0 0 0-.032.283v-.001c-.017.22-.036 6.771.047 2.377.003-.138-.036.05-.029-.51 0-.037.031-.056.033-.17.003-.263.023-1.663-.002-1.945.006-.003.012-.021.017-.06.045-.345-.09-1.413-.105-1.217ZM22.607 87.33c.028-.519.142-.116.094.31-.006.048-.133.39-.094-.31Zm.044-1.85c.036.059.02.594.011.823-.032-.006-.007-.598-.01-.822Zm105.077-1.577c.03.089-.003 1.24-.026 1.287-.002-.448.01-.874.026-1.287Zm-.156 1.243c.008-.029.013-.014.017.035-.005.002-.011-.01-.017-.034Zm-.049-2.044c-.003.026-.02.766.019.665.057-.15.002-.875-.019-.665Zm.106-1.396c.007-.065.199-.276.127.415-.013.125-.059-.362-.08.48.003-.628-.088-.496-.047-.895Zm-3.496-.21c.052-.149.029.954.025.996-.031.336-.061-.693-.025-.997ZM22.66 81.89c.002.026 0 .466-.003.485-.045.402-.036-.95.003-.485Zm101.724-1.524c-.045-.626-.055 1.34-.043 1.44.028-.062.047-1.375.043-1.44Zm3.403-.344c.028-.004.031.771.027.834-.03.41-.04-.551-.027-.834Zm-3.38-3.073c-.002.053-.019 1.123.008 1.148.011-.156.02-1.726-.008-1.148Zm.309-.106c.005.252-.024.945.01.985-.005-.252.024-.946-.01-.985Zm-.347.896c.094-.661-.085-2.653-.054-1.348 0 .024.053-.226.046.278 0 .042-.059.12-.038.756.005.127.043.322.046.314Zm3.521-.915c.056.767-.044.274-.05.292-.008.054.039.602-.012.479v.003c-.081-.707.057-.834.062-.774Zm-105.193-.14c.029-.006.03.787.027.834-.027.27-.062-.531-.027-.834Zm102.331-.6a.789.789 0 0 0-.045.153c-.061.773.069.284.045-.153Zm-102.37-1.35c-.021-.528-.225-1.423-.021-1.038l.049 2.323c-.053-.258-.014-.904-.029-1.286Zm104.902.71c.014-.096.051.2.046.357-.01.279-.09-.05-.046-.357ZM22.97 74.59c-.05.132-.01.76-.023 1.126.057-.168.02-.753.024-1.126Zm-.08.107c-.004.03 0 .832.026.833.003-.35.02-1.046-.026-.833Zm101.602-2.918c-.01.15.016 3.194.032 3.62.025-.417.028-3.434.015-3.57-.004-.04-.045-.069-.047-.05ZM23.055 74.16c-.04.107-.029.833-.024 1.126.051-.131.012-.762.024-1.126Zm-.525.932c-.06-.237-.015-1.246.006-.813.006.121-.008.604-.006.813Zm101.648-2.23c.043.274.029 1.05.037 1.496-.056.046-.027-1.178-.037-1.497Zm3.689.35c.047-.487.035 1.195-.005.647a46.16 46.16 0 0 1 .005-.647Zm-104.931-.446c-.04.223.008 1.156.024.998.005-.05-.003-1.113-.024-.998Zm102.128.645c0-.126-.073-.164-.08-.136-.053.263.076.563.08.136Zm2.838-2.955-.005.05c.038.19-.001 2.267-.011 2.39-.055.618-.026-2.212-.017-2.3a.705.705 0 0 1 .015-.088c-.018-.105-.021-.64.023-.702-.003.16 0 .599-.005.65Zm-.35 1.548c.048.19.054.313.042.847-.014-.79-.056-.058-.042-.847Zm-2.669-.438c-.003-.022-.063.094-.066.12-.048.555.106.292.066-.12Zm-101.877.267c.057-.295.015-1.659-.023-1.321-.004.05.025 1.13.023 1.321Zm101.406-.114c-.086-.328-.028-1.84.015-.805.004.1-.034.518-.015.805Zm.722-1.28c-.008.257-.026 1.02.008 1.148-.006-.28.027-1.038-.008-1.147Zm-.661-2.761c.074.438.017.79.021 1.379.001.157.032.117.032.133.002.274-.034.07-.035.239 0 .11.043 2.33-.013 2.01-.041-.228-.005-3.272-.005-3.761Zm.245-.315.013 1.646c.126-.536.088.584-.015.965l.077.468c-.158.258.093.36-.038.867.19.675 0-1.865.161-2.172-.019 2.758.159-1.822-.082.102.087-1.585-.03-.52-.06-.764-.033-.263.003-1.159-.056-1.114v.002Zm.314 3.657c-.046.4.088.497.048.035-.001-.018-.044-.05-.048-.035Zm2.537-1.619c-.005.199-.009.794-.037.79 0-.296 0-.712.037-.79Zm-104.328-.995c-.016-.194-.076.534-.037.628.025.058.048-.503.037-.628Zm104.617-.76c.011-.028.092.82.072 1.196-.04.713-.08-1.154-.072-1.196ZM26.393 67.06c-.045-.608.188-2.49.15-.47-.011.525-.05.202-.05.225-.056 1.12.03.825.04 1 .021.376-.083.316-.04.95-.063-1.049-.036-.094-.073-.064-.15.118.07-1.397.04-1.92-.005-.072-.054.464-.067.279Zm.18.786c.058-.148.045.716.035.84-.005.047-.11-.646-.035-.84Zm98.38.66c.016-.16-.004-1.854-.041-1.171-.003.054.016 1.247.041 1.17Zm.256-1.94c.003.238-.013.84-.007.975.023.477.067-.741.007-.975Zm-.498-.52c-.008.108-.015 1.076.023 1.16.051-.46-.005-1.404-.023-1.16Zm.159-.882c-.005.21.025.415.022.595-.006.286-.048.036-.05.052v.002c-.023.376.071.861.081.057l.042.848c.052-1.053-.077-.976-.071-1.278.007-.423.114-.39.147-.305-.065-.347-.067-1.82-.079-2.671-.027.748-.074 1.962-.092 2.7Zm-98.678.446c.028-.417.04.552.026.835-.022.006-.029-.8-.026-.835Zm.808.25c.002.02-.002.471-.004.487-.045.401-.036-.95.004-.487Zm98.162-1.78c.032 1.358-.058.847-.089 1.089-.064.514.152.333.161.269.034-.265-.051-1.173-.072-1.359Zm.123.816c-.089.387.103.733.065.138-.002-.028-.06-.153-.065-.138Zm-.798-.198c.008-.345-.003-1.06.045-.904-.019.609.044 1.956-.055 1.4-.05-.278.01-.46.01-.496Zm3.042-1.05c.045.35.045 1.15.038 1.66-.059.009-.024-1.332-.038-1.66Zm-103.13 1.33c.085.233.055-.23.072-.377.015-.136.066-.224.04-.522l-.112.9Zm100.01-2.09c.057-.572.043 1.998.033 2.147-.028-.17-.04-2.066-.033-2.147Zm-.077 1.745c.017-.095.061.083.062.367-.026.102-.1-.144-.062-.367Zm.411-3.305c-.135.853.021 2.01.018 2.137-.004.125-.062-.072-.064-.043-.003.069.002 1.403.006 1.474.003.046.086-.197.113.08-.048-.54-.019-2.997-.028-3.124-.007-.099-.095.645-.045-.523Zm0 2.453c.035-.334.04.606.027.834-.029.506-.031-.79-.027-.834Zm-.418.68c-.044-.245-.001-2.098.035-1.607.006.086.03 1.966-.035 1.607ZM24.77 61.813c.027.401-.005 1.28.012 1.645.003.042.134-.188.046.358-.059.369-.116-1.64-.058-2.003Zm100.115.27c0 .429-.026 1.092.022 1.325.001-.428.026-1.092-.022-1.325Zm-99.56.291c.025-.358.041.434.027.671-.025.023-.031-.616-.028-.67Zm.57-1.877c.038.037.012 1.535.012 1.802-.035-.153-.054-1.838-.011-1.802Zm-.128-1.237c.005-.047.127.071.11.4-.054 1.033-.126.282-.017 2.444-.077-.908-.056-.05-.087-.228-.025-.142-.004-.674-.054-.365.027-.204.037-.747.04-1.25l.008-1.001Zm-.418.68c.01-.024.026.739.018.828-.039.463-.074-.702-.018-.828Zm.105.075c.025-.022.031.616.028.67-.026.358-.042-.434-.028-.67Zm101.685-.732c.031-.14.061.465.044.683-.039.486-.054-.635-.044-.683Z"/></svg>