<svg xmlns="http://www.w3.org/2000/svg" width="36" height="28" fill="none"><path fill="#fff" d="M15.355.727c.042-.047.342-.517.27-.177-.037.17-.259.383-.282.565.152-.293.1-.06.126-.09.024-.03.055-.11.104-.165.039-.042.072-.034.097-.065.1-.122.273-.422.02-.108.21-.432.13-.057.147-.013.008.018.024-.073.068-.045.004.003-.055.087-.039.093.018.004.05-.083.094-.073a.456.456 0 0 1-.003.125c-.07.128-.078.01-.107.019-.182.059-.194.19-.251.215-.015.005.082-.135-.004-.11-.105.36-.137.063-.309.446.085-.086.29-.313.334-.291-.099.096-.054.069-.116.204.17-.13.04-.005.07-.003.14.008.252-.23.152.024l.09-.143-.007.143c.105-.12.225-.622.323-.487 0 .005-.049.085-.048.09.006.014.094-.06.037.033-.04.063-.296.246-.348.494.199.058.192-.106.375-.375.1-.146.01.068.011.08.033.102.07-.074.052.206 0 .023.056-.01.056.002-.005.018-.145.241-.1.292.143-.303.074-.099.147-.16.06-.052-.013-.116.102-.034-.145.22.019.066.034.09.013.03-.11.315.18-.04-.023.139-.106.178-.12.213-.035.1.068.03.083.034.021.008.001.111.032.09.016-.012.06-.186.117-.141-.072.096-.144.192-.218.287.04.042.338-.21.345-.198.007.032-.065.158-.065.165.003.004.136-.094.084.016-.06.122-.148-.12-.2.087-.002.014.052-.028.056-.006.013.07-.007.286.103.187.009-.012.044-.187.092-.228.035-.03.002.17.038.19.03.015.137-.08.138-.041-.002.012-.104.176-.072.224.014.018.184-.118.028.208-.034.071-.224.293-.17.333.052.035.097-.192.197-.264.058-.041.107.079.098.116-.045.192-.198.344-.207.364-.027.067.032.092.015.128-.014.03-.164.181-.22.266-.088.135-.226.457-.334.45.073.025-.171.346-.191.227-.084.102.034.047-.032.16-.023.04-.23.302-.276.329l.02-.07c-.2.264-.042.146-.04.155.023.12-.115.101-.113.17 0 .008.076-.027.076.03-.004.213-.157.24-.212.333-.018.03.026.083-.08.18l.038-.104c-.214.211.01.08.012.09-.007.017-.206.246-.231.242-.01-.001.198-.308.06-.254a8.28 8.28 0 0 0-.304.343c-.088.125.089.119-.025.195-.085.056-.012-.072-.016-.073-.099.014-.701.85-.856.973-.047.14-.174.205-.206.245-.09.117-.019.135-.022.144-.04.077-.229.108-.232.167-.03.008-.096.127-.094.132.019.028.45-.303.512-.393-.086.161-.64.665-.697.745-.005.01.053.012.028.041-.028.032-.03-.032-.066 0-.058.05-.308.346-.388.419-.014.013-.212.148-.275.207-.179.176-1.107 1.069-1.179 1.106-.006.004 0-.077-.064-.028-.112.086.005.049.038.053-.15.13-.304.26-.457.388l-.012-.034c-.193.318-.18.154-.197.16-.05.027-.34.334-.43.338.111-.095.032-.102.036-.11.016-.023.133-.043.143-.064.002-.012-.127.018.002-.068.02-.012.12-.007.144-.043.152-.229-.31.12-.387.185.036-.036.464-.53.235-.41-.053.029-.223.202-.308.267-.021.017-.038-.004-.055.008-.045.033-.121.23-.235.123.06.075-.07.068-.104.166l.15-.056c-.114.056-.536.457-.578.478-.041.02-.048-.13-.166.046-.01.015.047.081-.105.16-.062.03-.066-.008-.109.007-.037.014-.118.084-.13.088-.01 0-.04-.08-.113-.032-.082.055-.107.27-.169.347-.15-.186-.258.085-.28.1-.035.023-.146.051-.22.1-.054.037-.095.07-.13.096l.164.001c.053-.04.112-.08.12-.086.004-.006-.002-.058.014-.068.044-.027.083.012.09.008.048-.028.186-.208.205-.142a12.26 12.26 0 0 1-.357.288l1.595.006c.018-.142.228-.043.405-.074l-.262.039c.1.032 1.113.004 1.11-.034-.01-.12-.134-.006-.146-.004-.031.001 0-.049-.032-.048-.046.001-.067.027-.102.03-.022 0-.045-.028-.069-.026-.006.002-.033.076-.101.05a.257.257 0 0 1-.033-.064c.023-.02.181-.008.226-.018.042-.008.066-.067.15-.055.047.006.02.043.02.048.22.01.458-.04.69.017.024.053-.32.02-.23.086.085.062.431-.026.483-.027.066 0 .081.198.16.11.03-.033-.062-.089-.062-.095.031-.016.203.054.256.043.028-.007.002-.049.009-.05.238-.026.547.006.795-.001.017-.046-.118-.04-.158-.042-.292-.013-.606.042-.883-.033.484-.01.97-.02 1.454-.032-.017.092.082.018.11.03.14.06-.4.03-.42.058-.005.012.165.044.177.044.022 0-.003-.033.048-.034.122-.002.239.012.36.01.031-.046-.136-.035-.112-.063.026-.028.364-.073.42-.05.04.016.026.067.033.073.014.008.05-.04.09-.036.181.02.182.018.394.007.018.002.05.107.092-.05-.002.162.062.02.2-.002.12-.02.711.034.729.014.047-.053-.2-.034-.14-.077.014-.01.425-.007.425.014-.012.042-.397.014-.232.071.04.014.082-.011.1-.006.21.06.115.019.256.036.016.005.172.117.204.013l-.159-.013c.362-.037.176.04.19.045.15.06.077-.13.177-.07.064.04-.186.105.186.135.058.004.17-.072.123.037l.127-.051c-.125.008-.043-.136.017-.098.012.008-.03.043-.021.05.011.004.098-.008.105-.003.01.007-.027.04-.017.046.342.202.214-.069.226-.083.053-.056.074.036.08.04.04.016.127-.019.112.036-.18-.072-.124.083-.11.084.069.003.045-.06.077-.067.066-.014.22.006.3-.006l-.243-.043c.112.007.218-.067.233-.07.04-.006.034.084.184-.004.094.066-.298.102-.067.138.188.03.186-.029.196-.029.065.011.016.063.02.066.015.006.312.005.356.007.029 0-.008-.031.04-.033.004.002-.007.045.098.044.095 0 .302-.089.378-.055.01.007-.032.058-.02.066.043.026.434-.035.395.049.1-.072.563.016.589-.006a.737.737 0 0 0 .037-.164c-.013-.003-.199.036-.188-.028.459-.026.15.16.203.19.083.045.136-.093.233-.09-.346-.045.111-.102.153-.031.018.032-.106.005-.104.026.005.018.142.027.166.06.04.058-.166-.028-.128.045.237.035.112-.005.203-.086l.142.11c-.112-.132.27-.11.113-.18-.048-.02-.263.077-.29-.027.075.022.381-.02.422.026.005.008-.029.149.081.125.042-.011.02-.3.122-.117.053-.094.04-.047.193-.051-.113.024-.029.08-.018.08.055-.01.01-.043.022-.048.01-.003.084.024.106.014.015-.008-.116-.066.102-.051-.092.092.007.023.034.058.05.069-.083.17.156.175.014 0 .195-.021.173-.048-.169-.023-.329-.014-.225-.14.047.14.26.085.273.091.015.01-.06.053.025.077.012.003.186.015.196.014.011-.003.024-.068.125-.083-.302.048-.18-.1-.197-.108-.015-.006-.367-.068-.014-.033.11.01.09.046.096.046.064.002.042-.049.195-.037.07.006.067.042.07.047.048.007.009-.036.037-.032.022.004.286.107.066-.002l.29-.006-.1.051c.14-.028.14.05.26.058.102.006.255-.034.365-.041.027-.002.049.04.171-.003l-.075.05c.123-.029.792-.074.641.05.373.041.206-.044.233-.07.074-.065.138.059.15.062.019.005.006-.036.042-.039.332-.022.19.04.21.05.104.046.8-.184.776-.055.053-.046.328.066.209.082l.438.022c.105-.023-.159-.04-.1-.08.015-.005.265.084.126-.066.246-.005.488.002.733.014.052.003.08-.028.116-.026.051.002.11.06.148.063.114.008.372-.004.404-.003.184.008.415.005.178.11.305.084.14-.075.323-.09.289-.02.285.089.303.094.08.02.37-.018.083-.068.28-.018.56.02.838.03.075.003.29-.034.337-.026.042.007.035.066.064.066.028-.002-.001-.045.01-.047.075-.013.183-.001.263-.01L29.91 12l.21-.021-.075.048c.054.037 1.16-.01 1.014.075-.022.012-.147-.016-.187-.011-.025.052.333.038.349.032.073-.03-.088-.039-.059-.055.017-.008.228-.053.272-.054.214-.006.65.06.811.158l1.257-.027-.024.033c.386-.041.275.265.658.308.074.008.144-.074.191-.011.04.054-.216.011-.232.07.003.008.115.08.164.053-.27.127.187.157.338.202-.028.019-.2.124-.198.135.015.015.575.001.144.125.179.063.344.02.533.037l-.28.12.507.037c-.038.108-.248.003-.364.013-.164.013.134.063.134.088-.008.038-.125-.002-.101.035.024.036.275.023.293.027.008.003-.034.044-.022.048.047.011.496.044.229.146-.133.05-.367-.035-.502.037.261-.017.081.056.111.064.03.006.098-.008.155.008.044.012.052.045.083.051.123.026.396.034.082-.034.381-.026.089.084.066.12-.01.017.06-.015.056.039 0 .004-.08-.007-.079.01.003.017.076.003.085.046a.346.346 0 0 1-.087.058c-.114 0-.036-.062-.054-.083-.11-.13-.204-.075-.243-.112-.011-.01.124.005.073-.057-.288.09-.096-.088-.427-.04.093.028.327.089.33.138-.104-.036-.068-.01-.184.005.154.08.02.03.029.058.05.124.253.1.042.141l.133.006-.099.067c.121.029.51-.113.454.039-.005.003-.076-.002-.08.002-.008.012.077.053-.008.049-.057-.004-.28-.137-.468-.054.038.2.146.109.397.136.136.014-.042.04-.05.047-.057.081.076.026-.119.15-.016.01.029.044.02.049-.011.005-.215-.004-.232.061.255-.03.093.014.162.046.056.026.071-.07.06.07-.199-.014-.038.049-.046.075-.01.025-.252.06.093.134-.1.05-.157-.001-.185.005-.078.02.005.073.009.088.003.023-.073.059-.047.075.014.007.144-.043.136.029l-.269-.042c-.011.056.265.185.256.196-.018.022-.12.024-.129.027-.003.004.11.07.02.08-.1.012.023-.187-.13-.125-.01.004.035.028.024.043-.04.046-.186.142-.082.185.012.001.138-.058.182-.037.03.015-.109.088-.109.13.002.032.101.076.078.097-.007.004-.15 0-.17.052-.005.022.143.098-.12.133-.058.008-.27-.037-.273.03-.003.063.156-.02.238.028.048.027-.008.132-.035.145-.136.063-.29.014-.305.018-.05.013-.044.074-.073.08-.024.004-.173-.039-.247-.04-.117 0-.368.067-.407-.027.015.074-.278.057-.215-.027-.095-.009-.014.055-.11.067a1.378 1.378 0 0 1-.31-.034l.05-.024c-.238-.005-.107.05-.108.059-.061.089-.11-.032-.15.011-.001.007.048.044.016.076-.127.125-.209.021-.286.033-.025.003-.037.07-.139.046l.076-.034c-.217-.041-.04.06-.047.066-.014.004-.232-.015-.24-.036.007-.01.262-.035.173-.109a3.785 3.785 0 0 0-.333-.026c-.11.009-.028.141-.122.1-.07-.03.034-.052.033-.056-.051-.073-.8-.002-.943-.033-.1.057-.197.002-.235.005-.105.01-.084.074-.089.08-.06.023-.17-.098-.204-.06-.019-.017-.112.013-.118.019-.008.031.383.13.462.119-.13.04-.671-.03-.743-.015-.008.002.02.046-.009.048-.03.001.003-.043-.032-.048-.057-.007-.337.015-.416.009-.016-.002-.186-.049-.248-.052-.183-.01-1.13-.013-1.184-.03-.001-.005.037-.055-.018-.063-.104-.013-.024.04-.008.066l-.439-.023.01-.033c-.265.108-.173-.007-.187-.012-.042-.013-.348.025-.4-.031.106.001.069-.054.073-.059.02-.006.093.054.11.046.009-.005-.079-.07.035-.05.017.005.069.073.099.063.196-.07-.227-.114-.302-.114.038-.005.515-.092.33-.153-.042-.015-.22.002-.3-.004-.02-.002-.02-.029-.036-.03-.042-.004-.18.095-.19-.06-.003.096-.072.007-.14.06.038.017.075.036.111.054-.09-.033-.525.006-.555-.004-.032-.011.034-.132-.116-.071-.013.005-.012.093-.136.057-.05-.014-.034-.046-.065-.061-.026-.013-.107-.008-.117-.013-.005-.007.016-.087-.049-.095-.073-.008-.19.146-.261.167-.001-.236-.186-.092-.208-.091-.03-.004-.11-.049-.176-.054-.185-.016-.224.017-.354-.028-.036-.013-.172.003-.08-.067.045-.035.05.055.109.03-.093-.077.059-.126.097-.083 0 .007-.047.072-.005.082.018.003.02-.045.048-.05.01-.001.048.036.069.031.059-.016-.191-.09.059-.092.035 0 .068.043.095.04.005-.004-.046-.08.102-.036.003-.026-.264-.044-.28-.043-.066.005-.06.066-.089.052-.027-.014.056-.043-.137-.054l.104-.01c-.006-.071-.217-.016-.278-.01-.028.002 0-.042-.043-.03-.018.006-.056.207-.07.228-.01.016-.087.015-.092.018-.017.022.106.042.11.045 0 .008-.08.082-.088.084-.103.019-.228-.079-.297-.076-.079.004-.003.032-.009.032-.022 0-.426-.012-.297-.056.142-.049.377.045.503-.003.038-.015.01-.036-.017-.041-.094-.02-.096.034-.102.034-.05-.004-.117-.042-.192-.046-.042-.002-.038.032-.049.032-.048-.002-.225-.053-.255-.04-.07.031.163.074-.202.042-.036-.003-.033-.033-.036-.036-.04 0-.045.045-.049.049-.085 0-.497-.07-.179.07-.151.033-.129-.042-.154-.047-.158-.029-.475 0-.096-.078-.115.02-.176-.047-.26-.057-.112-.013-.078.055-.139.035-.007-.004.01-.044-.018-.05-.078-.016-.16.04-.169.037-.029-.018.054-.053.047-.065-.009-.015-.206.025-.264.006-.006-.003.03-.045.021-.05-.066-.024-.307.05-.42.026l.082.046c-.194.002-.246.052-.017.082-.05-.01-.358.016-.371.008-.011-.01.042-.075-.022-.08-.064-.005-.09.047-.006.065-.137.01-.665.053-.775.031-.053-.01-.034-.057-.066-.062-.088-.014-.286.007-.385-.047.318.015.693.022.176-.094.027.142-.127.039-.142.037-.026-.002.017.047-.062.034-.005-.001-.015-.048-.058-.056-.095-.018-.203.012-.284-.05-.042.063.297.129.24.172-.009.006-.163-.014-.185-.004-.12.058.118.027.136.038.1.088-.426.061-.42.033.003-.007.106-.024.187-.043l.014-.003c.104-.026.152-.053-.158-.06l.155-.035c-.094-.056-.35.01-.37.008-.007-.005-.003-.092-.009-.097-.036-.018-.244-.032-.292-.001-.02.014-.03.026-.034.036.004-.095-.744-.143-.764-.083-.025.078.313-.018.194.1-.064-.101-.04-.004-.106.003-.002-.003 0-.034-.016-.033-.072.005-.274.053-.356.025-.006-.003.023-.054-.014-.066.14.008.26.01.275-.005.053-.054-.205-.077-.246-.075-.003.003.009.048.005.05-.11.02-.478-.09-.53-.006.058.003.277.023.467.034a.321.321 0 0 0-.078.021c-.061.023.095.108-.23.067-.038-.004-.044-.041-.048-.044-.046-.004-.01.036-.037.035-.163-.012-.345-.04-.519-.037.136-.052-.008-.144-.108-.145-.129-.002-.415.191-.404.058-.162.131-.475-.018-.68.027-.053.012-.047.073-.17.081-.08.005-.397-.006-.233-.066-.08.013-.239-.042-.283-.043-.014 0-.01.033-.024.033-.225-.009-1.406-.083-1.496-.007-.028.024.12.03.058.056-.13.053-.088-.057-.096-.064-.076-.05-.602.016-.73.001.186.08-.23.035-.146.149.21-.143.26.02.28.026.013.002.166-.071.224-.022.02.02-.275.252-.41.155l.05-.034c-.122-.023-.095-.002-.182.021.003-.163-.205.046-.265.006-.003-.008.17-.124-.07-.062-.117.03.136.057.034.095-.253-.045-.595.02-.814-.046.056 0 .403.022.289-.039-.013-.007-.068.023-.079.018-.078-.042.075-.056.13-.035-.014-.048-.236-.037-.242-.027-.005.014.071.039.058.047-.026.014-.2.002-.211.005-.012.005.039.044.03.048-.064.026-.84-.043-.981-.01.02-.118.173.007.237-.022.103-.049-.316-.105-.379-.09.051-.01.103-.022.154-.034-.195-.065-.423.117-.45.124-.069.01-.021-.028-.018-.033-.11-.007-.256-.005-.357-.012-.007 0-.058-.038-.14-.04-.027.002-.029.114-.12-.032-.076-.009-.014.046-.082.062-.21.049-.191-.018-.22-.02-.193-.003-.414-.01-.605-.005-.015.001-.061.077-.241.005l.016.032-.106.002c.008-.01.017-.02.024-.032l-.4-.04c.083-.053.368-.228.262-.021.106-.065.052.009.18.01.046.001.01-.032.095-.035.079-.002.133.09.105-.016.062.107.416.044.332.009-.042-.017-.286.079-.324-.058.21.04.183-.037.196-.037.083-.001-.065.123.151.061.01.135.11-.016.102-.033-.026-.036-.224-.041-.261-.05-.076-.018-.037-.055-.04-.057-.1.002-.083.058-.212.005.063.053-.024.082-.076.042 0-.004.09-.04.044-.055-.146-.047-.374.078-.474-.024l.18-.053c-.08.029-.716.017-.667-.05.009-.011.386.062.395-.025l-1.365-.033c.174.082.36.233.531.31l.007.004c.02.009.04.019.059.025.068.023.09-.035.24.034.097.046.466.259.243.207.1.037.263.19.314.22.016.01.028-.023.045-.014.265.148 1.59 1.023 1.73 1.032.046 0-.121-.11-.037-.088.175.047.073.109.076.122.06.095.695.428.83.54-.168-.21.277.143.245-.015-.316-.04-.283-.215-.302-.234-.014-.012-.226-.064-.265-.148-.015-.033.448-.01.549.177l-.075-.01c.126.114.106.075.218.123-.094.134.259.12.302.202.002.009-.262-.031.044.106.148.067-.123-.155.015-.104.26.236.676.46.878.695-.06-.048-.432-.349-.34-.205.01.015.087.036.096.049.063.099-.115-.017-.164-.077-.014.048.24.222.251.22.014-.008-.056-.091-.036-.087.036.009.222.166.236.172.014.005-.017-.068-.005-.064.088.028.888.749 1.056.856-.094.074-.18-.159-.267-.192-.14-.053.276.362.35.405l-.188-.111c.166.224.525.294.556.315.08.055.003.039-.003.04.11.107.264.243.363.344.007.008.034.082.116.161.029.027.108-.057.103.14.07.08.045-.02.125.034.248.17.179.202.208.23.191.194.405.42.594.616.016.014.117.01.237.248l.008-.04.103.111-.047-.003c.118.151.234.305.347.459-.117-.058-.514-.244-.26-.27-.15-.07-.045-.06-.165-.197-.044-.05-.032.01-.116-.077-.078-.08-.062-.2-.112-.097.019-.14-.375-.458-.318-.347.028.053.337.238.274.372-.174-.244-.203-.162-.215-.175-.082-.084.152-.022-.104-.197.085-.105-.12-.1-.125-.078 0 .05.19.252.22.297.064.093-.007.076-.002.082.098.1.122.044.207.213-.021-.101.08-.033.102.05 0 .003-.114-.066-.08-.007.104.182.41.34.424.515a19.018 19.018 0 0 0-.205-.155c.1.062.664.764.564.752-.018-.009-.296-.462-.371-.415.514.63.992 1.3 1.416 2.016.008 0 .156-.074.187.12.026.164-.1-.05-.135-.035.076.1.252.512.319.567.006.004.026-.08.074-.033.014.016.083.352.11.37.026.014.027-.093.078.012.016.033-.006.207.047.363.053.13.453.869.335.918-.008-.003-.164-.292-.035.02-.034.058-.052-.086-.081-.09-.229-.027-.063.157-.055.186.014.045-.077.059-.024.206-.161-.468-.257-.26-.148.163a.79.79 0 0 0-.146-.339c.02.183-.022-.03-.066.033-.024.038.021.18-.037.148-.004-.005-.026-.079-.04-.088-.22-.145-.039.023-.047.136-.002.015-.056-.059-.065-.033-.01.038-.018.202-.025.202-.004-.002-.041-.108-.06-.114-.027-.006-.031.089-.086.03-.007-.011-.062-.181-.086-.194-.045-.023-.035.156-.053.15-.029-.012-.014-.082-.067-.083-.005.003.045.19.017.229-.074.1-.226-.294-.142.188-.072-.25-.068-.029-.123-.052-.002-.006-.007-.068-.009-.07-.314-.172-.089.05-.144.075-.033.012-.245-.189-.262-.195-.016-.003.02.054.01.07-.006.01-.06-.023-.062-.005 0 .012.07.208.07.22-.002.012-.05-.05-.072-.016-.029.048-.03.143-.044.144-.015-.002-.093-.09-.102-.088-.01.015.033.224 0 .21-.005-.004-.045-.12-.102-.15-.055-.03-.035.108-.039.114-.024.008-.156-.037-.178-.013-.01.015.027.202-.005.213-.004.002-.008 0-.012-.003-.003-.01.012-.15-.046-.145-.016.002-.022.104-.081.124-.142.046-.214-.167-.274-.378-.037.089.084.334.072.49l-.07-.095c-.06.002.03.13-.033.142-.006 0-.11-.105-.117-.103-.028.024-.006.18-.04.145-.013-.014-.078-.19-.058-.222.01-.018.059.03.063.03.01-.015-.01-.076-.004-.085.022-.035.05-.012.067-.067-.036.089-.108-.105-.038-.149.017.03.048.122.042.142a.57.57 0 0 0-.054-.334c.038-.054.105.154.12.134.009-.016-.066-.175-.062-.2.005-.022.066 0 .069-.006 0-.012-.06-.186-.074-.198-.007-.005-.05.04-.056.033-.046-.049-.095-.238-.104-.249-.009-.009-.037.068-.068-.026.103-.04-.1-.266-.11-.323-.015-.102.164.077.037-.148-.17-.291-.038.132-.124.01-.018-.03-.034-.403-.207-.467.03.052.165.26.17.303.027.197-.195-.266-.215-.28-.076-.055-.08.024-.103.016-.015-.008-.188-.352-.272-.38-.097-.257-.508-.723-.08-.084.01.016.028-.022.039.002.06.143-.063.055-.135-.021l.022.06c-.148-.003-.021-.005-.086-.065-.02-.018-.055-.001-.063-.009-.011-.01-.029-.066-.065-.1-.043-.041-.103-.02-.16-.113-.066-.103-.01-.164-.012-.174-.032-.079-.366-.451-.456-.526l.175.08c-.117-.19-.142-.076-.236-.173a17.7 17.7 0 0 0-1.593-1.647c-.11.091-.226-.15-.406-.264l.257.176c-.062-.11-1.005-.86-1.032-.825-.066.101.123.105.134.113.03.022-.032.038-.002.062.045.034.08.028.115.053.02.016.023.056.046.072.008.003.08-.034.126.038a.236.236 0 0 1-.011.074c-.034-.001-.172-.13-.219-.157-.044-.025-.102.003-.174-.07-.038-.038.01-.047.013-.05-.198-.173-.453-.307-.64-.52.01-.059.316.216.27.098-.042-.113-.429-.29-.48-.325-.064-.047.035-.22-.093-.204-.05.007.012.123.004.122-.038-.008-.165-.186-.224-.214-.031-.015-.03.036-.037.034-.25-.146-.54-.38-.795-.54-.042.028.096.113.136.141.285.206.629.377.855.633a29.35 29.35 0 0 0-1.47-.956c.066-.066-.072-.068-.094-.096-.112-.142.422.232.457.224.012-.006-.145-.147-.156-.153-.022-.014-.015.03-.067-.001-.127-.078-.239-.166-.365-.241-.056.02.123.115.082.123-.043.006-.415-.17-.461-.224-.032-.04.009-.072.004-.082-.011-.016-.071.003-.11-.025-.18-.129-.182-.13-.41-.25-.019-.01 0-.125-.121-.013.082-.14-.055-.054-.212-.117-.134-.057-.741-.448-.771-.44-.077.02.198.145.113.148-.025-.004-.463-.24-.45-.255.034-.031.434.214.283.07-.037-.036-.092-.037-.11-.053-.2-.171-.116-.082-.261-.176-.014-.012-.133-.201-.216-.125l.167.1c-.406-.166-.177-.133-.186-.145-.14-.138-.142.073-.226-.037-.05-.068.25.007-.143-.22-.06-.035-.22-.028-.12-.1l-.163-.022c.142.06-.01.145-.06.079-.01-.013.051-.022.044-.032-.008-.01-.107-.046-.117-.055-.006-.012.047-.02.04-.032-.289-.358-.267-.056-.285-.043-.082.024-.068-.073-.074-.078-.038-.036-.149-.05-.11-.091.171.16.175-.01.159-.019-.076-.038-.075.033-.113.023-.08-.022-.24-.118-.336-.149l.25.162c-.12-.063-.267-.048-.285-.053-.047-.015-.005-.095-.208-.088-.079-.108.375.054.132-.095-.2-.122-.22-.064-.231-.07-.067-.042.007-.065.003-.069-.02-.016-.351-.159-.398-.18-.031-.013-.003.033-.055.013-.007-.004.028-.038-.094-.088-.11-.046-.374-.058-.447-.124-.011-.012.056-.039.046-.051-.033-.038-.35-.125-.422-.186-.07-.036-.095-.06-.06-.061-.208-.039-.795-.385-1.114-.87-.334-.47-.42-.951-.444-.987-.013-.02-.186-.127-.187-.098-.025.03.28.772.23.762-.408-.913-.249-1.087-.225-1.038.05.048.143.279.14.172-.004-.324-.154-.511-.103-.904-.11 1.398-.125-.461.125-.62.05-.065-.127.423-.095.422.009-.014.188-.557.28-.634.108-.14-.274.634-.142.506.152-.455.241-.556.24-.6.007-.042-.044-.023.024-.212a2.78 2.78 0 0 1 .49-.43c-.224.138-.047-.107.169-.296.213-.185.436-.32.104-.156-.098.052-.339.254-.525.48-.192.226-.329.463-.406.497.107-.231.716-.964 1.184-1.153.034-.016.062-.025.077-.021.01.003.043.148.148.061.038-.034-.128-.27.071-.17.01-.115.02-.066.176-.16-.105.087.009.087.021.08.053-.041-.012-.042 0-.054.008-.009.101-.03.118-.054.007-.014-.153.015.082-.104-.052.135.02.014.064.029.088.028-.001.198.252.056.01-.006.196-.141.158-.15-.192.088-.352.191-.31.02.12.092.318-.09.334-.092.02-.002-.034.082.066.05.013-.004.2-.102.21-.11.011-.01-.01-.074.087-.151-.29.234-.24.027-.262.032-.019.006-.414.171-.033-.018.121-.061.119-.018.125-.022.068-.04.02-.069.183-.155.077-.041.092-.003.097-.005.052-.025-.012-.037.02-.052.023-.01.354-.097.067-.044.1-.065.196-.13.294-.195l-.075.108c.128-.115.17-.048.298-.123.11-.064.24-.198.348-.28.027-.02.076 0 .172-.117l-.047.092c.108-.105.752-.61.672-.403.4-.233.178-.183.192-.222.033-.106.171-.053.185-.058.02-.01-.014-.033.02-.06.316-.259.21-.106.237-.114.131-.037.666-.733.72-.613.023-.077.356-.197.252-.095.144-.104.29-.21.433-.317.085-.098-.175.09-.144.015.012-.016.301-.14.075-.148.228-.193.46-.376.695-.56.05-.04.056-.085.09-.112.05-.039.142-.041.179-.07.109-.085.337-.302.365-.326.171-.143.379-.336.235-.064.333-.188.075-.17.229-.33.24-.254.312-.175.331-.185.086-.053.314-.324.028-.12.232-.246.503-.456.746-.689.066-.062.221-.275.266-.31.04-.032.077.014.1-.011.023-.026-.032-.03-.025-.041.053-.074.152-.16.213-.237l-.103.042.157-.198-.025.099c.078-.02.925-1.043.873-.86-.009.028-.128.124-.156.163.022.053.285-.27.298-.295.035-.087-.098.054-.087.016.009-.023.136-.244.168-.284.162-.2.539-.564.734-.658.303-.402.594-.811.87-1.226l.011.041c.227-.402.407-.121.698-.484.055-.071.031-.185.115-.2.072-.012-.131.224-.093.272.007.003.145-.074.152-.139-.07.345.258-.105.391-.239-.001.039-.023.273-.014.277.024-.005.374-.601.202-.085.17-.155.237-.35.37-.542-.024.118-.048.237-.074.356.119-.172.236-.346.35-.521.072.093-.151.267-.216.394-.093.183.144-.114.163-.099.027.029-.081.134-.035.126.048-.009.195-.288.207-.302.008-.006.018.058.028.047Zm.021 26.061c-.003.058-.097.05-.097.06.003.014.097.242.104.253.006 0 .044-.051.056-.032.01.021-.037.215.07.33l.057.044c-.12-.183.005-.088.008-.105.003-.027-.197-.438-.198-.55Zm-.41.284c.035-.084.145.236.143.251-.001.093-.163-.193-.142-.25Zm.066-.141c.024.023.212.441.12.368-.011-.013-.132-.329-.12-.368Zm.546.091c-.027.06.042.166.07.24.03-.058-.039-.165-.07-.24Zm-.175-.432c-.074-.133-.117-.01-.067.044.005-.003.022-.056.049-.011.017.03.007.077.027.11.074.12.207.313.283.435-.046-.155-.157-.413-.126-.5-.024.029-.117.077-.157.008-.028-.05.095-.09-.039-.25l.03.164Zm-.351.3c.048-.132.092.116.152.21-.033.045-.074-.078-.106-.132-.006-.006-.07-.012-.046-.077Zm2.909.014c.033.043.048.186.009.164-.012-.007-.081-.258-.01-.164Zm-2.97.052c.02.047-.01.094-.031.085-.05-.021 0-.09.03-.085Zm.371-.088c.03.034.093.197.037.154-.007-.01-.1-.228-.037-.154Zm.359-.333c-.015-.007-.222.052-.123.114.046.03.089-.097.164.157.005-.042.012-.238-.041-.27Zm-.595-.09c-.027.03.057.19.072.205.036.034.012-.15-.072-.206Zm-.602-.57c.02-.08.188.3.196.317.015.026.028-.023.05.022.002.003-.028.01-.016.036.047.097.128.13.098.234-.036-.08-.338-.554-.328-.609Zm.594.163c-.166.023-.242-.489-.343-.282.162.017-.045.158.116.123l-.024.115c.126.013.259.183.1.154l.13.279c.057-.02-.05-.152-.045-.211.005-.055.204.068-.014-.156.386.209-.19-.476.08-.022Zm.09.089c-.028-.001.057.204.065.217.091.099-.035-.196-.065-.217Zm.397.219c.035-.068-.111-.261-.09-.167.008.027.073.124.09.167Zm-1.163-.482c.011.055.08.102.087.12.057.186-.13-.024-.087-.12Zm3.413-.271c.057.107.133.283.125.377-.018-.079-.178-.356-.125-.377Zm-3.685-.366c.035.074.315.566.336.587.004 0 .035-.023.035-.032-.001-.032-.303-.506-.371-.555Zm-.15.33c.038.073.123.185.113.25-.022-.055-.165-.226-.113-.25Zm1.062-.042c-.015.039.074.158.105.198.02-.036-.082-.148-.105-.198Zm-.252-.265c-.047-.068-.125.05-.054.065.008.002.068-.044.054-.065Zm-1.037-.295c-.004.003-.014.054-.004.075.049.105.104.087.112.091.058.071-.007.067-.008.07.112.217.05-.19-.1-.236Zm-.002-.082c-.02.02.112.173.12.18.084.071-.093-.162-.12-.18Zm4.015-.2c.061.07.082.29.069.289-.01-.008-.184-.422-.07-.29Zm-3.735.06c-.023.025.08.116.103.159.022-.027-.078-.118-.103-.16Zm3.233-.152c.023-.014.094.105.122.144-.042.001-.088-.083-.122-.144Zm-3.997-.216c.004.022.238.307.202.188-.003-.012-.172-.196-.202-.188Zm-.224.016c.008.003.155.148.099.16-.063-.022-.162-.188-.099-.16Zm4.2-.531c.025.017.313.427.3.487.003.001.008.002.012.006.01.008.059.102.08.134-.045.009-.105-.105-.103-.135a.075.075 0 0 1-.022-.01c-.015-.016-.39-.58-.268-.482Zm-.242.163c.075.1.085.128.066.19-.107-.15.019-.026-.066-.19Zm-6.187-1.803c.082.036.796.714.855.813-.1-.248.084.162.1.046.16.175.29.366.48.511-.25-.128-.585-.518-.834-.75-.049-.047-.112-.061-.136-.084-.007-.008.011-.052-.09-.144-.055-.05-.19-.108-.198-.122-.004-.013.04-.045.035-.056a2.007 2.007 0 0 0-.202-.144c-.014.002.004.076-.012.073-.12-.02-.022-.154.002-.143Zm5.82 1.219c.025.027.033.105.009.094-.075-.035-.052-.142-.008-.094Zm-.057-.471c.024-.052.06.077.074.084.008 0 .022-.152.08.027.005.015-.123.07-.154-.111Zm-.47-.6c.014.01.12.153.098.17-.05-.046-.18-.226-.098-.17Zm-.36-.23c.139.137.104.023.132.037.155.08-.021.16-.038.154-.09-.045 0-.08-.095-.19Zm-.274-.116c-.043.008.077.124.083.128.046.023-.018-.139-.083-.128Zm-.575-.716c-.742-.665.287.395.327.43a.188.188 0 0 0 .065.027.467.467 0 0 0 .13.26c.041.026-.014-.248-.1-.278-.01-.003-.017-.002-.022.001-.024-.066-.25-.288-.293-.33-.018-.017-.044 0-.05-.006-.09-.087-.035-.083-.057-.104Zm-4.423.482c-.09-.03.084.117.133.143.015-.027-.119-.137-.133-.143Zm4.907-.117c.025-.007.223.172.212.207a1.74 1.74 0 0 1-.212-.207Zm-6.388-.727c.038.032.163.089.15.12-.037-.032-.162-.088-.15-.12Zm5.52-.13c.024.046.142.157.141.116 0-.006-.126-.15-.141-.115Zm.125-.047c-.004.02.1.102.128.135.02-.034-.121-.16-.128-.135Zm-6.49-.256c.058.039.191.11.2.165-.07-.047-.19-.1-.2-.165Zm.054-.328c-.096-.015.073.133.097.09.006-.016-.072-.086-.097-.09Zm5.558-.203c-.008 0-.053.029.014.075.08.055.045-.046-.014-.075Zm-6.613-.18c.057.044.255.113.208.157-.056-.045-.253-.113-.208-.157Zm5.095-1.148c.013.033.102.075.113.092.015.028-.125-.007-.098.028.057.072.067.009.088.026.026.022-.023.022.039.071.242.193.65.532.888.711.017.012.233.156.255.157-.231-.277-.48-.303-.6-.594-.092-.086-.197-.114-.211-.124-.08-.066.009-.032.003-.038-.106-.088-.227-.146-.341-.238-.034-.027.024-.038-.006-.066-.021-.02-.133-.036-.13-.025Zm-5.429.959c.06.031.149.073.155.124-.038-.032-.158-.094-.155-.124Zm.397-.11c-.006.003-.017.085.023.105.054-.003.037-.11-.023-.106Zm6.372.063c-.402-.268-.242-.35.126.029.012.033-.117-.024-.126-.03Zm-7.603-.44c.658.316.755.528.03.051-.046-.03-.051-.018-.03-.052Zm1.097.28c-.029-.105-.165-.097-.119-.047.008.005.089.022.12.047Zm-.137-.13c-.068-.043-.128.044-.004.051.004 0 .028-.036.004-.051Zm5.915-.24c-.004.01.102.11.13.134.01-.036-.113-.165-.13-.134Zm-.1-.188c-.042.044.125.108-.031.056.04.027.105.092.14.105.175.067-.026-.097-.108-.161Zm-6.627-.01c.01.039.142.1.187.135.046-.043-.128-.095-.187-.136Zm6.497-.09c-.072-.064-.025.055-.025.081.07.049.058-.05.025-.08Zm-.49-.345c-.072.04.387.357.414.368.145.037-.38-.332-.414-.368Zm-7.472.032c.012.02.318.13.222.14-.027.001-.267-.096-.222-.14Zm7.65.017c-.01 0-.019.072.027.101.07.01.021-.093-.027-.1Zm-.638-.18c-.101-.026.06.147.078.154.336.11-.007-.064-.021-.074-.012-.01.013-.062-.057-.08Zm-.157-.396c-.003.029.094.1.136.124.006-.044-.131-.16-.136-.124Zm-7.363-.049c-.023.013.097.089.116.061.013-.024-.106-.064-.116-.06Zm6.855-.225c-.146-.045.201.198.219.205.138.041-.174-.192-.22-.205Zm-9.02-.51c.23.048.285.108.437.178.06.027.187.043.199.05.007.006-.052.037.115.124.058.03.192.049.2.055.026.027-.064.05-.127.036-.08-.017.01-.046-.046-.07-.218-.098-.462-.151-.643-.255l.022.044c-.145-.036-.05-.08-.157-.163Zm1.118.179c-.013.02.101.08.113.08.075.007-.063-.074-.113-.08Zm6.85-.282c.042.032.173.109.17.143-.064-.039-.163-.09-.17-.143ZM.22 15.35c.01-.026.291.524.225.45l.04.048c.032.083.496.662.538.662.043.023.09-.063.128-.04.027.018.325.267.69.42.117.06.246.132.235.137-.04.022-.169-.05-.25-.096-.152-.068-.26-.133-.278-.142-.017-.007.022.055-.104.007a2.033 2.033 0 0 1-.213-.145c-.039-.003.383.317.551.384l.012.009c.09.036-.025-.117.139-.035.106.053-.044.05-.052.053-.009.004.01.031 0 .044l-.023.004a.22.22 0 0 1-.097-.022c-.268-.124-.309-.233-.38-.282-.28-.218.106.176-.268-.12.162.08-.105-.107-.33-.367-.233-.257-.396-.572-.357-.54l-.013-.015c-.02-.014-.21-.398-.193-.414Zm9.967 1.554c.02.109.168.168.213.095.076.068-.037.079-.061.071-.104-.034-.231-.133-.152-.166Zm-.25.037c-.41-.174-.355-.41-.093-.19.032.028-.021.039.015.068.098.079.503.324.059.074l.019.047Zm-7.827-.176c-.03-.03-.172-.03-.16-.01.024.042.227.079.16.01Zm7.336-.212c-.087-.094.16.008.192.093-.04-.032-.176-.079-.192-.093Zm23.858-.098c.069.022-.096.064-.133.003.034.003.113-.009.133-.003Zm.095-.099c.058.205-.081-.001-.167-.024-.061-.016-.168.022-.209-.032l.376.056Zm-24.684-.253c.016.002.063.055.084.061.016.003-.106-.147.267.096-.297-.1-.099.008.013.156-.141-.113-.725-.339-.364-.313Zm.147.282c-.005-.009.092-.04.112.009.014.036-.084.021-.112-.01Zm.268-.09c.059.005.111.123.028.072-.02-.013-.05-.073-.028-.072Zm22.007-.05c.07-.046.133.07.049.096-.112.034-.06-.084-.05-.096Zm.216.043c.038-.008.125-.022.134.014-.036-.005-.133.019-.133-.014Zm1.428-.032c.01-.004.136.001.136.03-.05.033-.18-.004-.136-.03Zm-24.419-.24c.02.003.327.25.307.279-.093-.015-.424-.283-.307-.278Zm21.24.247c-.02-.037-.318-.045-.319-.018.003.025.272.001.32.018Zm.605-.037c.002-.037-.205-.043-.105.01.005.001.1.003.105-.01Zm-2.237.008c.114.021-.027-.169-.1-.078a.525.525 0 0 0 .1.078Zm.539-.044c-.035.022.057.06.108.03.004-.025-.1-.034-.108-.03Zm-1.653-.091c.187-.1.108.054.113.061.005.002.123-.013.083.03a.567.567 0 0 1-.185-.013.126.126 0 0 0 .049-.016c.01-.005-.084-.047-.06-.062Zm.904.02c-.21-.119-.067.036-.076.041-.032.015-.188-.05-.157.02.043-.016.23.025.237-.013.002-.013-.117-.032-.004-.048Zm-.995-.018c.043-.007.043.054.079.07-.114-.02-.207-.051-.08-.07Zm-.76-.079c.027-.01.14-.021.157.004.058.09-.09.04-.102.041-.01.005.012.092-.032.098-.07.01-.02-.039-.061-.048-.034-.007-.168.01-.17-.02-.002-.04.118-.008.13-.011.008-.003-.098-.054-.017-.064.08-.009.018.058.059.063.05.005.033-.06.037-.063ZM.57 15.544c-.133-.073.096.385.36.564-.5-.565-.081-.098-.36-.564Zm32.54.525c-.001.026.13.034.134.03.035-.045-.078-.032-.135-.03Zm.286-.038c-.024.016.125.068.163.029.019-.021-.155-.033-.163-.029Zm-6.914.01c.061-.006.176-.037.212.01-.053.015-.175.03-.212-.01Zm.425.023c.012-.07.163-.04.159-.012-.005.018-.126.007-.159.012Zm-2.202-.032c.055-.001.137-.012.162.029-.055 0-.137.012-.162-.029Zm8.558-.013c-.061.001-.154-.037-.183.02.06-.012.16.03.183-.02Zm.663 0c.055-.036-.165-.082-.214-.027.032-.001.204.032.214.027Zm-9.252-.036c.037-.013.158.016.136.03-.017.009-.134 0-.136-.03Zm.882-.067c.06-.01.047.045.044.047-.047.017-.113-.034-.044-.047Zm7.778.02c-.06.01-.16-.03-.183.02.048.005.165.02.183-.02Zm-8.027-.127c.038.005.042.058.049.061.04.008.204-.05.184.014-.05.005-.43.02-.45.01-.099-.063.161-.04.177-.04.002 0 .009-.012.016-.024l.024-.021Zm1.524.013c.028-.018-.101-.069-.108-.029-.004.024.089.04.108.03Zm7.442-.053c-.021-.01-.112.01-.103.035.015.038.134-.018.103-.035Zm-7.854.03c.244-.045-.182-.043-.201-.027-.049.047.185.03.201.027Zm-13.027-.092c.077-.028.194-.014.158.057-.054-.081-.169-.05-.168.037-.073-.016-.008-.087.01-.094Zm8.664.062c.004.031-.095.012-.13.018.02-.046.075-.027.13-.018Zm.262-.04c.052-.035.28-.06.316-.023.041.047-.267.078-.316.024Zm-10.125-.015c.016.039.147.052.135.02-.01-.025-.1-.025-.135-.02Zm-1.796-.035c.346-.058.293.105-.083.06-.02-.017.077-.06.083-.06Zm1.158 0c-.046.035.028.087.06.064.005-.007-.021-.068-.06-.063Zm7.898.017c.032-.005.199-.04.188.02-.01.043-.177.008-.188-.02Zm-5.049-.015c.019 0 .057.036.044.046-.039.027-.116-.047-.044-.046Zm.032-.082c.13.024.59-.073.348.085-.01.006-.06-.016-.076-.01-.013.005.122.073-.207.053.226-.065.06-.058-.065-.128Zm-.743 0c.326-.071.38.16.132.112-.031-.006-.002-.044-.036-.05-.091-.015-.44-.003-.066-.03l-.03-.032Zm.457.07c.091.035-.105.078-.157.021.037.007.142-.025.157-.02Zm12.083-.012c-.057.025.114.06.137.046.037-.022-.086-.067-.137-.046ZM11.18 15.64c-.035.003-.1-.005-.126.005-.13.06.056.06.132.06.006-.063-.12-.009-.006-.065Zm.103-.019c-.06.005-.01.076.022.08.07.005-.01-.06-.022-.08Zm15.955.015c-.029-.013-.098.025-.075.05.03.03.082-.045.075-.05Zm-15.499.04c.026-.076-.38-.05-.4-.04-.1.06.366.03.4.04Zm.791-.051c-.1.045.182.058.216.044.109-.046-.202-.05-.216-.044Zm14.6.004c-.055-.064-.18.016-.127.044.01.004.156-.011.128-.044Zm-4.049.034c.03-.016-.092-.068-.137-.03-.045.04.114.04.137.03Zm.205-.068c-.047.035.03.085.059.062.001-.005-.032-.067-.059-.062Zm-12.375.002c.011.034.14.057.134.021a.441.441 0 0 0-.134-.021Zm12.748.021c.03-.04-.07-.046-.106-.006.014.03.102.01.106.006Zm-2.416-.043c-.06.032.067.066.137.045-.005-.021-.124-.052-.137-.045Zm-4.662.008c.068.002.147-.014.212.003-.028.032-.184.022-.212-.003Zm6.438-.015c-.063-.003-.242-.018-.156.037.011.003.157-.007.156-.037Zm.846-.003c-.025-.008-.097.016-.13.019.024.041.2.005.13-.019Zm-12.358-.11c-.066-.023-.044.034-.064.032-.024-.002.004-.03-.053-.032a9.567 9.567 0 0 0-.829.01 1.369 1.369 0 0 0-.214.047c.256.057.409-.082.61.068.09.009.162-.036.175-.036.076.001.007.03.015.031.1.003.196-.027.302-.024.031.001.003.046.031.05.022.002.093-.053.087-.059-.022-.02-.092.002-.106-.006-.02-.012.075-.07.046-.08Zm1.973.117c.054-.002.136-.013.16.028-.038-.004-.147.002-.16-.028Zm7.524-.007c-.056.025.07.043.11.03-.008-.028-.085-.042-.11-.03Zm5.817-.024c-.017.015-.063.012-.037.056.09-.03.14-.15.037-.056Zm-7.574-.034c.61.106-.445.111-.227.049.035-.01.116.006.126.002a.041.041 0 0 0 .012-.017c.001.033.097.043.175.028l-.086-.062Zm5.268-.085c-.06.025-.422.02-.448.025-.012.005-.037.109-.043.115-.004.003-.14-.011-.128.027.013.026.447-.025.499-.036l-.19-.06c.054.008.123-.035.153-.037.014 0-.004.128.157-.034Zm.118.126c.012-.006.206-.02.161.028-.037.04-.195.004-.161-.028Zm-9.889-.054c.068-.034.376.037.3.091-.011.007-.305-.057-.3-.09Zm-.158.02c.007.004-.044.081-.074.05-.023-.024.045-.062.074-.05Zm1.831.024c.048.003.12-.013.16.004-.018.027-.152.023-.16-.004Zm6.678-.004c-.087.034.117.032.159.012 0-.026-.149-.015-.16-.012Zm4.049-.058c-.01.005.038.059.034.079.087.013.036-.044.048-.05.008-.002.17.046.187.028.043-.05-.24-.074-.27-.057Zm-5.319.015c.02.011.02.05.026.054.016.01.027-.03.063-.042l-.089-.012Zm5.126.054c.075 0 .056-.134-.045-.064-.014.01.016.063.045.064ZM9.26 15.513c-.008-.018-.103-.002-.133-.005.006.038.141.027.133.005Zm-1.671-.019c.046-.012.201 0 .135.029-.012.003-.135-.002-.135-.029Zm4.366-.066c-.245.11.027.047.044.047.012 0 .02.06.07.032.07-.04-.1-.085-.114-.08Zm14.543.056c-.032.01-.075-.002-.066.023l.263-.006c-.064-.046-.16-.029-.197-.017Zm-16.436-.046c-.07.013-.003.065.043.047.005-.003.017-.057-.043-.046Zm-2.197-.097c.066-.04.043.05.145.05-.137.018-.06.066-.08.079-.113.069-.076-.122-.065-.13Zm.566.085c-.008.023-.198.052-.211.021a.819.819 0 0 1 .21-.021Zm.87-.035c-.035-.016-.153-.011-.131.018.003.004.14.017.13-.018Zm-1.075-.17c-.033.013.138.152.195.108a.025.025 0 0 0 .01-.017c.045.027.271.012.315.01.019-.002.023-.033.03-.033.089-.005.06.032.08.03.716-.068-.348-.07-.384-.054a.123.123 0 0 0-.047.03c-.028-.043-.158-.092-.2-.074Zm-1.375.03c.05-.042.101.038.056.047-.025.004-.072-.033-.056-.047Zm1.243-.012c-.033.02.083.078.108.022.016-.038-.104-.024-.108-.022ZM.37 15.07c.053.043-.105-.585-.088-.28 0 .018.08.27.088.28Zm3.18-.322-.042.052a.405.405 0 0 0 .065-.026l.029-.042a.238.238 0 0 0-.051.016Zm31.451-.233c-.048-.028-.064.023-.086.038-.024.016-.1-.015-.063.071l.149-.11Zm-30.432-.19c.006.003.01.007.014.008l.003-.01a.13.13 0 0 0-.017.001Zm30.482-.127c.089-.083.05.043.056.047.06.018.203-.01.267.019-.06.056-.384-.008-.323-.066Zm-30.638-.031h.005l-.003-.002-.002.002Zm-.667-.23.065.032c-.04-.093-.097-.17-.106-.163-.002.004.023.065.041.132Zm-.348-.204c.03.024.073.053.124.083-.034-.06-.064-.11-.082-.117-.005-.003-.024.016-.042.034Zm.059-.148c.049.033.18.244.214.198.038-.037-.177-.216-.214-.198Zm32.1.085c.015-.007.136.011.133.021-.024.055-.209.016-.133-.021Zm-.37.008c.039-.014.165.005.107.03-.011.002-.112-.006-.107-.03Zm-31.952-.082a.632.632 0 0 0-.05.005l.033.039c.12.042.153.043.136.02-.014-.027-.083-.065-.158-.088a.376.376 0 0 1 .04.024Zm32.336-.04c.01-.004.112.005.11.029-.039.014-.167-.005-.11-.03ZM.538 13.192c.213-.368-.114-.127-.231.208.01.039.207-.17.231-.208Zm35.21-.029c.053-.015.068.106.06.111-.021.008-.3-.011-.366.04.051-.048-.034-.03-.057-.054-.028-.032.11-.008-.036-.09.348.118.23.044.398-.007Zm-.43-.039c.044.001.288-.02.293.018.005.042-.268.017-.293-.018Zm-.667-.325c.046-.013.203.002.136.03-.007.001-.137-.008-.136-.03Zm.078-.325c.16.02-.088.189-.173.148-.03-.014.057-.06.046-.065-.085-.032-.334.182-.312.033.006-.037.16-.007-.01-.074.102.045.095-.058.155-.036.028.011-.02.095.163.043 0-.003-.046-.04.037-.048l.095-.001Zm-.433-.072c.022-.01.16-.02.136.038-.033.072-.14-.03-.136-.038Zm-27.161.01c.003.017.032.018.066.017l.025-.02c-.034.001-.071.006-.091.003Zm13.244-.346c-.01.022.054.14.066.146.106.026.02-.136-.066-.146Zm-1.053.09c-.032-.03-.197.01-.127.05.032.018.142-.035.127-.05Zm-17.73-.398c-.34.146-.684.485-.541.405.014-.01.298-.237.563-.362a.549.549 0 0 0 .096-.05c-.02-.016-.068-.009-.118.007Zm16.561.358c-.058.024.07.044.109.03.003-.024-.1-.033-.109-.03Zm1.646.029c.031-.082-.09-.09-.162-.029.18-.044.029.02.162.029Zm9.56-.069c-.033 0-.14.01-.157.02-.069.044.189.036.156-.02ZM7.835 12.05c-.03 0-.06.003-.086.007a.233.233 0 0 1-.038.033l.002.002a.956.956 0 0 0 .183-.019c.001 0 .003 0 .003-.002-.04.004-.059-.006-.064-.021Zm20.466.025c0-.042-.138-.006-.105.01.005.002.103.004.105-.01Zm-10.997-.005c.015-.02-.103-.038-.106-.005-.002.027.1.013.106.005Zm-2.557.01c.066.003.073-.104-.018-.049-.002.002-.005.048.018.05Zm.567-.045c-.017.06.13.021.187.028-.02-.03-.14-.02-.188-.028Zm-.613-.018c-.007-.001-.071.025-.103.018.063.076.156.002.103-.018Zm6.258.037c-.022-.067-.29-.086-.241-.028.008.007.205.036.241.028Zm-13.174-.029c.019.003.035.003.049.004a.132.132 0 0 1 .034-.052c-.028.016-.055.033-.083.048Zm6.62-.084c-.038.03.018.114.059.08.003-.006-.023-.083-.06-.08Zm15.057.083c-.031-.022.166-.078.21-.027.012.028-.202.032-.21.027Zm-10.172-.233c.133-.054.156.058.18.07.073.03-.035-.082.062-.05-.074.053.262.058.243.094a.04.04 0 0 1 .004-.003c.007-.002.104-.007.107.006.002.034-.142.033-.117.003-.004.002-.008.006-.014.008-.021.008-.182-.031-.188-.026-.01.011-.008.106-.017.112-.02.008-.41-.04-.403-.056.037-.05.278.013.292.009.003-.004-.008-.037.02-.057.008-.005.055.009.056.007.008-.013-.145-.077-.155-.077-.08 0 .055.1-.096.083-.1-.011.021-.065.024-.07.006-.01-.036-.037.002-.053Zm7.146.18c0-.016-.13-.002-.159-.004.014.047.16.032.16.005Zm-15.423-.018c.003.03.147.034.16.03.076-.032-.115-.04-.16-.03Zm-2.9-.068c.03-.035-.063-.004-.093-.009-.018.001-.038.003-.057.002-.002.018-.002.03-.02.036-.035.01.024-.064-.136.04l.097-.01a.09.09 0 0 1 .05-.018c.003 0 .001.032.008.053a.1.1 0 0 1 .044-.022c0-.014 0-.029.013-.041.008-.008.074-.01.093-.031Zm5.364.078c.074-.04-.11-.072-.106-.022.005.017.088.031.107.022Zm-5.609-.074c-.026-.026-.09.017-.153.072l.077-.007.076-.065ZM19 11.79c.121-.02.06.055.168.093-.188.039-.25.004-.388-.003-.054-.003-.155.034-.166.032-.007-.003.03-.056-.126-.07-.053-.005-.16.03-.169.028-.028-.013.031-.071.084-.084.067-.016.008.047.058.048.198.004.398-.041.57-.013l-.031-.03Zm-7.415.053a2.342 2.342 0 0 0-.262.021c-.14.072.386.041.262-.021Zm-.936-.092c.09-.063.099.102.078.11-.071.02-.902-.016-.998-.042.206.113-.147-.06-.09.034-.201-.016-.395-.06-.599-.026.23-.09.67-.043.959-.037.057.001.106-.03.134-.03.01.003.024.046.14.048.062 0 .183-.044.194-.037.008.007-.003.059.006.064.01.004.204-.016.21-.021.007-.011-.042-.054-.034-.063Zm-2.317-.144c-.014-.02-.307.18-.326.194a.125.125 0 0 0-.026.03.22.22 0 0 1 .053.006.893.893 0 0 1 .087-.073c.038-.029.1-.02.125-.045.007-.007-.1-.025.087-.112Zm4.094.152c.04.006.154-.021.16.013-.04-.006-.154.02-.16-.013Zm3.071-.02c-.6.04-.755-.096-.042-.032.045.004.044-.008.042.031Zm1.006-.022c.017-.013.231-.034.215.026-.017-.014-.282.027-.215-.026Zm-2.333-.014c.059.01.229-.034.214.028-.06-.008-.23.034-.214-.028Zm.37-.008c.04.008.152 0 .162.029-.055.002-.137.012-.162-.029Zm-5.749-.018c.056-.057.077-.008.076 0-.037.051-.142.067-.076 0Zm4.364-.047c.07 0 .178-.022.215.026-.059 0-.184.015-.215-.026Zm-3.653-.379c.118.019-.075.108-.083.118-.007.011.073.06.03.103-.069.067-.045-.015-.095.014-.04.023-.17.149-.193.13-.028-.03.122-.107.132-.12.005-.008-.14.042-.06-.034.078-.075.055.03.102-.001.057-.039-.004-.076-.001-.081a.631.631 0 0 1 .13-.115l.038-.014Zm.121-.392c.226-.245-.217.123-.227.15-.02.079.213-.134.227-.15Zm.45-.046c-.047.057-.164.174-.227.175.059-.057.157-.18.226-.176Zm-.564.015c.025-.05-.132.022-.17.081-.044.068.152-.05.17-.08Zm.669-.042c.04-.042.08.004.128-.014-.132.083-.248.14-.128.014Zm.25-.136c.005-.001.117-.118.104-.05a.986.986 0 0 1-.199.154.218.218 0 0 0 .041-.056c.006-.012-.12.04-.103.005.128-.24.146-.054.157-.053Zm.027-.163c.002.02-.124.115-.155.147-.033-.064.142-.173.155-.147Zm-.741-.091a.423.423 0 0 0-.213.154c-.026.035-.08.065-.055.076.09-.078.18-.153.268-.23Zm.348.123c.017-.038-.149.037-.13.073.012.022.119-.048.13-.072Zm-.196-.127c.072-.1.044-.235.002-.076-.007.027-.057.065-.002.076Zm.375-.279c-.099 0-.173.168-.101.144.012-.004.151-.143.101-.144Zm-.239.092c.077-.064-.033-.149-.089-.007-.007.02.059.032.089.007Zm1.203-.296c-.289.102-.046.088-.049.1-.022.04-.222.134-.145.157.032-.05.25-.191.23-.225-.007-.01-.139.082-.036-.032Zm-.851.113c-.038.017-.083.106-.043.104.05-.003.052-.103.043-.104Zm.107-.23c.011-.076-.291.156-.31.194-.006.013.078.011.087.03.096-.067.009-.065.016-.079.01-.01.203-.118.207-.145Zm.825.185c.087-.02.087-.158-.01-.079-.007.007.005.08.01.079Zm.21-.176c.128-.09-.143-.1-.155.036a.743.743 0 0 0 .154-.036Zm.631-.615c-.014-.02-.12.068-.126.08-.02.048.097-.01.126-.08Zm.982-.921c-.045-.006-.34.284-.317.3.023.013.261-.265.317-.3Zm-5.937-.347c-.013-.011-.125.1-.153.12.042.026.172-.1.153-.12Zm6.477-.282c-.025-.025-.222.177-.09.111.007-.004.1-.101.09-.111Zm.86-.94c.027-.102.172-.095.117.011-.074.14-.119.004-.117-.01Zm-5.566-.2c-.028-.032-.127.11-.086.094.007-.003.095-.084.086-.095Zm5.92-.132c-.035.036-.102.154-.128.134.027-.044.093-.146.128-.134Zm.508-.622c.096-.055-.088.185-.066.086.002-.005.06-.081.066-.086Zm-5.507-.145a.957.957 0 0 0-.12.15c-.026.088.188-.14.12-.15Zm.204-.325c.033.007-.144.197-.155.2-.044.015.082-.196.155-.2Zm5.993-.47c-.013.075-.148.197-.132.133.005-.014.11-.15.132-.133Zm.448-.505c.216.048-.068.094-.154.177-.063.06-.117.2-.194.215.117-.13.233-.26.348-.392Zm.005.165c.073-.066-.023.144-.104.152.03-.036.083-.134.104-.152Zm-.393-.2c-.047.07-.152.153-.129.216.038-.072.153-.161.13-.215Zm.052.068c-.01-.065-.088.07-.132.134.02.015.13-.125.132-.134Zm-.064-.194c-.037.072-.151.162-.128.216.044-.05.147-.174.128-.216Zm.278-.183c-.003-.032-.145.154-.15.167-.007.037.154-.103.15-.167Zm.249-.44c.01-.081-.194.143-.187.23.024-.037.183-.216.187-.23Zm.046-.532c-.024.018-.073.133-.046.137.044.004.083-.164.046-.137Zm-.569-1.47c-.055.04-.023.083-.024.115-.002.036-.079.103.02.106l.004-.22Zm.023-.541c.012.095-.253.424-.265.33-.015-.143.071-.036.078-.041.054-.057.121-.23.187-.29ZM14.12.867c.178-.353.178.081.075.158-.03.023-.015-.087-.025-.082-.081.07-.06.439-.173.337-.027-.025.097-.166-.07-.03.105-.08.012-.127.07-.177.027-.022.068.072.14-.141.002-.005-.064.027-.017-.065Zm-.16.189c.041.07-.112.126-.118.119.005-.026.085-.174.118-.12Zm.447-.038c.02-.055.13-.21.11-.125-.004.01-.093.14-.11.125Zm1.097-.125c.013-.05.109-.18.094-.104-.005.014-.076.12-.094.104ZM13.81.503c.08-.053-.05.17-.047.08a.93.93 0 0 1 .047-.08Zm2.017-.157c.036.05-.114.239-.1.137a.488.488 0 0 1 .1-.137Zm-.531-.172c.04.016-.146.297-.191.305.027-.046.155-.317.19-.305Zm.099-.137c.017-.066.134-.026.134-.016-.005.027-.187.32-.182.416-.012-.077-.048.024-.083.037-.045.014.06-.122-.098-.005.312-.318.174-.226.229-.432Zm.332.27c-.01.049-.105.18-.091.106.002-.011.072-.12.091-.106Z"/></svg>